0, 0, Header, 1, 4, 240
1, 0, Start_track
1, 0, Title_t, "untitled"
1, 0, SMPTE_offset, 96, 0, 3, 0, 0
1, 0, Time_signature, 12, 3, 12, 8
1, 0, Key_signature, 0, "major"
1, 0, Tempo, 410959
1, 52200, Tempo, 500000
1, 52560, Tempo, 631579
1, 52920, Tempo, 845070
1, 52920, End_track
2, 0, Start_track
2, 0, MIDI_port, 0
2, 0, Title_t, "English Suite 1, 1. Prelude"
2, 0, Program_c, 0, 0
2, 0, Control_c, 0, 7, 100
2, 0, Control_c, 0, 10, 64
2, 2160, Note_on_c, 0, 81, 107
2, 2400, Note_on_c, 0, 76, 107
2, 2520, Note_on_c, 0, 73, 107
2, 2880, Note_on_c, 0, 69, 107
2, 2976, Note_on_c, 0, 81, 0
2, 3000, Note_on_c, 0, 80, 107
2, 3072, Note_on_c, 0, 76, 0
2, 3072, Note_on_c, 0, 69, 0
2, 3072, Note_on_c, 0, 73, 0
2, 3096, Note_on_c, 0, 80, 0
2, 3120, Note_on_c, 0, 78, 107
2, 3216, Note_on_c, 0, 78, 0
2, 3240, Note_on_c, 0, 76, 107
2, 3336, Note_on_c, 0, 76, 0
2, 3360, Note_on_c, 0, 78, 107
2, 3456, Note_on_c, 0, 78, 0
2, 3480, Note_on_c, 0, 74, 107
2, 3576, Note_on_c, 0, 74, 0
2, 3600, Note_on_c, 0, 69, 107
2, 3600, Note_on_c, 0, 73, 107
2, 3696, Note_on_c, 0, 69, 0
2, 3720, Note_on_c, 0, 68, 107
2, 3816, Note_on_c, 0, 68, 0
2, 3840, Note_on_c, 0, 66, 107
2, 3936, Note_on_c, 0, 66, 0
2, 3960, Note_on_c, 0, 64, 107
2, 4056, Note_on_c, 0, 64, 0
2, 4080, Note_on_c, 0, 66, 107
2, 4152, Note_on_c, 0, 73, 0
2, 4176, Note_on_c, 0, 66, 0
2, 4200, Note_on_c, 0, 62, 107
2, 4200, Note_on_c, 0, 74, 107
2, 4296, Note_on_c, 0, 74, 0
2, 4296, Note_on_c, 0, 62, 0
2, 4320, Note_on_c, 0, 76, 107
2, 4320, Note_on_c, 0, 61, 107
2, 4416, Note_on_c, 0, 76, 0
2, 4440, Note_on_c, 0, 74, 107
2, 4536, Note_on_c, 0, 74, 0
2, 4560, Note_on_c, 0, 73, 107
2, 4656, Note_on_c, 0, 73, 0
2, 4680, Note_on_c, 0, 71, 107
2, 4776, Note_on_c, 0, 71, 0
2, 4800, Note_on_c, 0, 73, 107
2, 4872, Note_on_c, 0, 61, 0
2, 4896, Note_on_c, 0, 73, 0
2, 4920, Note_on_c, 0, 69, 107
2, 4920, Note_on_c, 0, 62, 107
2, 5016, Note_on_c, 0, 62, 0
2, 5016, Note_on_c, 0, 69, 0
2, 5040, Note_on_c, 0, 68, 107
2, 5040, Note_on_c, 0, 64, 107
2, 5592, Note_on_c, 0, 68, 0
2, 5640, Note_on_c, 0, 69, 107
2, 5736, Note_on_c, 0, 69, 0
2, 5760, Note_on_c, 0, 71, 107
2, 5856, Note_on_c, 0, 71, 0
2, 5880, Note_on_c, 0, 73, 107
2, 5952, Note_on_c, 0, 64, 0
2, 5976, Note_on_c, 0, 73, 0
2, 6000, Note_on_c, 0, 59, 107
2, 6000, Note_on_c, 0, 74, 107
2, 6096, Note_on_c, 0, 74, 0
2, 6096, Note_on_c, 0, 59, 0
2, 6120, Note_on_c, 0, 64, 107
2, 6120, Note_on_c, 0, 73, 107
2, 6216, Note_on_c, 0, 73, 0
2, 6240, Note_on_c, 0, 74, 107
2, 6336, Note_on_c, 0, 74, 0
2, 6360, Note_on_c, 0, 71, 107
2, 6456, Note_on_c, 0, 71, 0
2, 6480, Note_on_c, 0, 69, 107
2, 6480, Note_on_c, 0, 73, 107
2, 6672, Note_on_c, 0, 64, 0
2, 7032, Note_on_c, 0, 73, 0
2, 7080, Note_on_c, 0, 74, 107
2, 7176, Note_on_c, 0, 74, 0
2, 7200, Note_on_c, 0, 76, 107
2, 7296, Note_on_c, 0, 76, 0
2, 7320, Note_on_c, 0, 78, 107
2, 7416, Note_on_c, 0, 78, 0
2, 7440, Note_on_c, 0, 79, 107
2, 7536, Note_on_c, 0, 79, 0
2, 7560, Note_on_c, 0, 78, 107
2, 7656, Note_on_c, 0, 78, 0
2, 7680, Note_on_c, 0, 79, 107
2, 7776, Note_on_c, 0, 79, 0
2, 7800, Note_on_c, 0, 76, 107
2, 7896, Note_on_c, 0, 76, 0
2, 7920, Note_on_c, 0, 78, 107
2, 8112, Note_on_c, 0, 78, 0
2, 8160, Note_on_c, 0, 76, 107
2, 8256, Note_on_c, 0, 76, 0
2, 8280, Note_on_c, 0, 74, 107
2, 8472, Note_on_c, 0, 74, 0
2, 8496, Note_on_c, 0, 69, 0
2, 8520, Note_on_c, 0, 76, 107
2, 8616, Note_on_c, 0, 76, 0
2, 8640, Note_on_c, 0, 78, 107
2, 8736, Note_on_c, 0, 78, 0
2, 8760, Note_on_c, 0, 80, 107
2, 8856, Note_on_c, 0, 80, 0
2, 8880, Note_on_c, 0, 81, 107
2, 8976, Note_on_c, 0, 81, 0
2, 9000, Note_on_c, 0, 83, 107
2, 9096, Note_on_c, 0, 83, 0
2, 9120, Note_on_c, 0, 80, 107
2, 9216, Note_on_c, 0, 80, 0
2, 9240, Note_on_c, 0, 81, 107
2, 9336, Note_on_c, 0, 81, 0
2, 9360, Note_on_c, 0, 80, 107
2, 9360, Note_on_c, 0, 76, 107
2, 9912, Note_on_c, 0, 80, 0
2, 9960, Note_on_c, 0, 81, 107
2, 10056, Note_on_c, 0, 81, 0
2, 10080, Note_on_c, 0, 83, 107
2, 10176, Note_on_c, 0, 83, 0
2, 10200, Note_on_c, 0, 81, 107
2, 10296, Note_on_c, 0, 81, 0
2, 10320, Note_on_c, 0, 80, 107
2, 10368, Note_on_c, 0, 76, 0
2, 10416, Note_on_c, 0, 80, 0
2, 10440, Note_on_c, 0, 78, 107
2, 10536, Note_on_c, 0, 78, 0
2, 10560, Note_on_c, 0, 80, 107
2, 10656, Note_on_c, 0, 80, 0
2, 10680, Note_on_c, 0, 76, 107
2, 10776, Note_on_c, 0, 76, 0
2, 10800, Note_on_c, 0, 75, 107
2, 10896, Note_on_c, 0, 75, 0
2, 10920, Note_on_c, 0, 76, 107
2, 11016, Note_on_c, 0, 76, 0
2, 11040, Note_on_c, 0, 78, 107
2, 11160, Note_on_c, 0, 71, 107
2, 11256, Note_on_c, 0, 71, 0
2, 11280, Note_on_c, 0, 73, 107
2, 11376, Note_on_c, 0, 73, 0
2, 11400, Note_on_c, 0, 69, 107
2, 11496, Note_on_c, 0, 69, 0
2, 11520, Note_on_c, 0, 68, 107
2, 11616, Note_on_c, 0, 78, 0
2, 11640, Note_on_c, 0, 71, 107
2, 11736, Note_on_c, 0, 71, 0
2, 11760, Note_on_c, 0, 76, 107
2, 11808, Note_on_c, 0, 68, 0
2, 11880, Note_on_c, 0, 66, 107
2, 11976, Note_on_c, 0, 76, 0
2, 12000, Note_on_c, 0, 76, 107
2, 12096, Note_on_c, 0, 76, 0
2, 12120, Note_on_c, 0, 75, 107
2, 12168, Note_on_c, 0, 66, 0
2, 12216, Note_on_c, 0, 75, 0
2, 12240, Note_on_c, 0, 76, 107
2, 12240, Note_on_c, 0, 64, 107
2, 12336, Note_on_c, 0, 76, 0
2, 12360, Note_on_c, 0, 75, 107
2, 12456, Note_on_c, 0, 75, 0
2, 12480, Note_on_c, 0, 73, 107
2, 12576, Note_on_c, 0, 73, 0
2, 12600, Note_on_c, 0, 71, 107
2, 12696, Note_on_c, 0, 71, 0
2, 12720, Note_on_c, 0, 73, 107
2, 12816, Note_on_c, 0, 73, 0
2, 12840, Note_on_c, 0, 69, 107
2, 12936, Note_on_c, 0, 69, 0
2, 12960, Note_on_c, 0, 68, 107
2, 13056, Note_on_c, 0, 64, 0
2, 13080, Note_on_c, 0, 63, 107
2, 13152, Note_on_c, 0, 68, 0
2, 13176, Note_on_c, 0, 63, 0
2, 13200, Note_on_c, 0, 69, 107
2, 13200, Note_on_c, 0, 61, 107
2, 13296, Note_on_c, 0, 61, 0
2, 13296, Note_on_c, 0, 69, 0
2, 13320, Note_on_c, 0, 68, 107
2, 13320, Note_on_c, 0, 59, 107
2, 13416, Note_on_c, 0, 59, 0
2, 13440, Note_on_c, 0, 61, 107
2, 13512, Note_on_c, 0, 68, 0
2, 13536, Note_on_c, 0, 61, 0
2, 13560, Note_on_c, 0, 66, 107
2, 13560, Note_on_c, 0, 57, 107
2, 13656, Note_on_c, 0, 57, 0
2, 13656, Note_on_c, 0, 66, 0
2, 13680, Note_on_c, 0, 64, 107
2, 14496, Note_on_c, 0, 64, 0
2, 14520, Note_on_c, 0, 63, 107
2, 14616, Note_on_c, 0, 63, 0
2, 14640, Note_on_c, 0, 61, 107
2, 14736, Note_on_c, 0, 61, 0
2, 14760, Note_on_c, 0, 59, 107
2, 14856, Note_on_c, 0, 59, 0
2, 14880, Note_on_c, 0, 62, 107
2, 14976, Note_on_c, 0, 62, 0
2, 15000, Note_on_c, 0, 61, 107
2, 15096, Note_on_c, 0, 61, 0
2, 15120, Note_on_c, 0, 62, 107
2, 15216, Note_on_c, 0, 62, 0
2, 15240, Note_on_c, 0, 64, 107
2, 15336, Note_on_c, 0, 64, 0
2, 15360, Note_on_c, 0, 66, 107
2, 15456, Note_on_c, 0, 66, 0
2, 15480, Note_on_c, 0, 64, 107
2, 15576, Note_on_c, 0, 64, 0
2, 15600, Note_on_c, 0, 66, 107
2, 15696, Note_on_c, 0, 66, 0
2, 15720, Note_on_c, 0, 62, 107
2, 15816, Note_on_c, 0, 62, 0
2, 15840, Note_on_c, 0, 69, 107
2, 15840, Note_on_c, 0, 61, 107
2, 15936, Note_on_c, 0, 69, 0
2, 15960, Note_on_c, 0, 68, 107
2, 16056, Note_on_c, 0, 68, 0
2, 16080, Note_on_c, 0, 66, 107
2, 16176, Note_on_c, 0, 66, 0
2, 16200, Note_on_c, 0, 64, 107
2, 16296, Note_on_c, 0, 64, 0
2, 16320, Note_on_c, 0, 67, 107
2, 16416, Note_on_c, 0, 67, 0
2, 16416, Note_on_c, 0, 61, 0
2, 16440, Note_on_c, 0, 66, 107
2, 16536, Note_on_c, 0, 66, 0
2, 16560, Note_on_c, 0, 67, 107
2, 16560, Note_on_c, 0, 62, 107
2, 16656, Note_on_c, 0, 67, 0
2, 16680, Note_on_c, 0, 69, 107
2, 16776, Note_on_c, 0, 69, 0
2, 16800, Note_on_c, 0, 71, 107
2, 16848, Note_on_c, 0, 62, 0
2, 16896, Note_on_c, 0, 71, 0
2, 16920, Note_on_c, 0, 69, 107
2, 16920, Note_on_c, 0, 64, 107
2, 17016, Note_on_c, 0, 69, 0
2, 17040, Note_on_c, 0, 71, 107
2, 17136, Note_on_c, 0, 71, 0
2, 17160, Note_on_c, 0, 67, 107
2, 17256, Note_on_c, 0, 67, 0
2, 17280, Note_on_c, 0, 66, 107
2, 17376, Note_on_c, 0, 66, 0
2, 17400, Note_on_c, 0, 68, 107
2, 17496, Note_on_c, 0, 68, 0
2, 17520, Note_on_c, 0, 69, 107
2, 17568, Note_on_c, 0, 64, 0
2, 17616, Note_on_c, 0, 69, 0
2, 17640, Note_on_c, 0, 71, 107
2, 17640, Note_on_c, 0, 62, 107
2, 17928, Note_on_c, 0, 62, 0
2, 18000, Note_on_c, 0, 61, 107
2, 18113, Note_on_c, 0, 71, 0
2, 18120, Note_on_c, 0, 69, 107
2, 18216, Note_on_c, 0, 69, 0
2, 18240, Note_on_c, 0, 68, 107
2, 18336, Note_on_c, 0, 68, 0
2, 18360, Note_on_c, 0, 69, 107
2, 18456, Note_on_c, 0, 69, 0
2, 18480, Note_on_c, 0, 66, 107
2, 18552, Note_on_c, 0, 61, 0
2, 18576, Note_on_c, 0, 66, 0
2, 18600, Note_on_c, 0, 59, 107
2, 18600, Note_on_c, 0, 68, 107
2, 18696, Note_on_c, 0, 68, 0
2, 18696, Note_on_c, 0, 59, 0
2, 18720, Note_on_c, 0, 65, 107
2, 19536, Note_on_c, 0, 65, 0
2, 19560, Note_on_c, 0, 66, 107
2, 19656, Note_on_c, 0, 66, 0
2, 19680, Note_on_c, 0, 68, 107
2, 19776, Note_on_c, 0, 68, 0
2, 19800, Note_on_c, 0, 61, 107
2, 19896, Note_on_c, 0, 61, 0
2, 19920, Note_on_c, 0, 66, 107
2, 20016, Note_on_c, 0, 66, 0
2, 20040, Note_on_c, 0, 65, 107
2, 20136, Note_on_c, 0, 65, 0
2, 20160, Note_on_c, 0, 66, 107
2, 20256, Note_on_c, 0, 66, 0
2, 20280, Note_on_c, 0, 68, 107
2, 20376, Note_on_c, 0, 68, 0
2, 20400, Note_on_c, 0, 69, 107
2, 20496, Note_on_c, 0, 69, 0
2, 20520, Note_on_c, 0, 71, 107
2, 20976, Note_on_c, 0, 71, 0
2, 21000, Note_on_c, 0, 73, 107
2, 21096, Note_on_c, 0, 73, 0
2, 21120, Note_on_c, 0, 74, 107
2, 21216, Note_on_c, 0, 74, 0
2, 21240, Note_on_c, 0, 73, 107
2, 21336, Note_on_c, 0, 73, 0
2, 21360, Note_on_c, 0, 74, 107
2, 21456, Note_on_c, 0, 74, 0
2, 21480, Note_on_c, 0, 71, 107
2, 21576, Note_on_c, 0, 71, 0
2, 21600, Note_on_c, 0, 69, 107
2, 21696, Note_on_c, 0, 69, 0
2, 21720, Note_on_c, 0, 71, 107
2, 21816, Note_on_c, 0, 71, 0
2, 21840, Note_on_c, 0, 68, 107
2, 21936, Note_on_c, 0, 68, 0
2, 21960, Note_on_c, 0, 69, 107
2, 21989, Note_on_c, 0, 69, 0
2, 21990, Note_on_c, 0, 68, 107
2, 22014, Note_on_c, 0, 68, 0
2, 22020, Note_on_c, 0, 69, 107
2, 22044, Note_on_c, 0, 69, 0
2, 22050, Note_on_c, 0, 68, 107
2, 22074, Note_on_c, 0, 68, 0
2, 22080, Note_on_c, 0, 69, 107
2, 22104, Note_on_c, 0, 69, 0
2, 22110, Note_on_c, 0, 68, 107
2, 22158, Note_on_c, 0, 68, 0
2, 22200, Note_on_c, 0, 66, 107
2, 22296, Note_on_c, 0, 66, 0
2, 22320, Note_on_c, 0, 66, 107
2, 22320, Note_on_c, 0, 78, 107
2, 22416, Note_on_c, 0, 78, 0
2, 22440, Note_on_c, 0, 76, 107
2, 22536, Note_on_c, 0, 76, 0
2, 22560, Note_on_c, 0, 74, 107
2, 22656, Note_on_c, 0, 74, 0
2, 22680, Note_on_c, 0, 73, 107
2, 22776, Note_on_c, 0, 73, 0
2, 22800, Note_on_c, 0, 74, 107
2, 22896, Note_on_c, 0, 74, 0
2, 22920, Note_on_c, 0, 71, 107
2, 23016, Note_on_c, 0, 71, 0
2, 23040, Note_on_c, 0, 70, 107
2, 23136, Note_on_c, 0, 66, 0
2, 23160, Note_on_c, 0, 64, 107
2, 23232, Note_on_c, 0, 70, 0
2, 23256, Note_on_c, 0, 64, 0
2, 23280, Note_on_c, 0, 62, 107
2, 23280, Note_on_c, 0, 71, 107
2, 23376, Note_on_c, 0, 71, 0
2, 23376, Note_on_c, 0, 62, 0
2, 23400, Note_on_c, 0, 61, 107
2, 23400, Note_on_c, 0, 70, 107
2, 23496, Note_on_c, 0, 61, 0
2, 23520, Note_on_c, 0, 62, 107
2, 23592, Note_on_c, 0, 70, 0
2, 23616, Note_on_c, 0, 62, 0
2, 23640, Note_on_c, 0, 68, 107
2, 23640, Note_on_c, 0, 59, 107
2, 23736, Note_on_c, 0, 59, 0
2, 23736, Note_on_c, 0, 68, 0
2, 23760, Note_on_c, 0, 66, 107
2, 23880, Note_on_c, 0, 64, 107
2, 23976, Note_on_c, 0, 64, 0
2, 24000, Note_on_c, 0, 62, 107
2, 24096, Note_on_c, 0, 62, 0
2, 24120, Note_on_c, 0, 61, 107
2, 24216, Note_on_c, 0, 61, 0
2, 24240, Note_on_c, 0, 62, 107
2, 24336, Note_on_c, 0, 62, 0
2, 24360, Note_on_c, 0, 59, 107
2, 24456, Note_on_c, 0, 59, 0
2, 24480, Note_on_c, 0, 58, 107
2, 24576, Note_on_c, 0, 66, 0
2, 24600, Note_on_c, 0, 68, 107
2, 24672, Note_on_c, 0, 58, 0
2, 24696, Note_on_c, 0, 68, 0
2, 24720, Note_on_c, 0, 70, 107
2, 24816, Note_on_c, 0, 70, 0
2, 24840, Note_on_c, 0, 71, 107
2, 24936, Note_on_c, 0, 71, 0
2, 24960, Note_on_c, 0, 70, 107
2, 25056, Note_on_c, 0, 70, 0
2, 25080, Note_on_c, 0, 73, 107
2, 25176, Note_on_c, 0, 73, 0
2, 25200, Note_on_c, 0, 59, 107
2, 25200, Note_on_c, 0, 74, 107
2, 25296, Note_on_c, 0, 59, 0
2, 25320, Note_on_c, 0, 61, 107
2, 25416, Note_on_c, 0, 61, 0
2, 25440, Note_on_c, 0, 62, 107
2, 25536, Note_on_c, 0, 62, 0
2, 25560, Note_on_c, 0, 64, 107
2, 25656, Note_on_c, 0, 64, 0
2, 25680, Note_on_c, 0, 62, 107
2, 25776, Note_on_c, 0, 62, 0
2, 25800, Note_on_c, 0, 66, 107
2, 25896, Note_on_c, 0, 66, 0
2, 25920, Note_on_c, 0, 67, 107
2, 26016, Note_on_c, 0, 74, 0
2, 26040, Note_on_c, 0, 73, 107
2, 26136, Note_on_c, 0, 73, 0
2, 26160, Note_on_c, 0, 71, 107
2, 26256, Note_on_c, 0, 71, 0
2, 26280, Note_on_c, 0, 76, 107
2, 26376, Note_on_c, 0, 67, 0
2, 26400, Note_on_c, 0, 66, 107
2, 26496, Note_on_c, 0, 66, 0
2, 26520, Note_on_c, 0, 64, 107
2, 26616, Note_on_c, 0, 64, 0
2, 26640, Note_on_c, 0, 69, 107
2, 26736, Note_on_c, 0, 76, 0
2, 26760, Note_on_c, 0, 74, 107
2, 26856, Note_on_c, 0, 74, 0
2, 26880, Note_on_c, 0, 73, 107
2, 26976, Note_on_c, 0, 73, 0
2, 27000, Note_on_c, 0, 74, 107
2, 27096, Note_on_c, 0, 74, 0
2, 27120, Note_on_c, 0, 78, 107
2, 27216, Note_on_c, 0, 78, 0
2, 27216, Note_on_c, 0, 69, 0
2, 27240, Note_on_c, 0, 76, 107
2, 27336, Note_on_c, 0, 76, 0
2, 27360, Note_on_c, 0, 78, 107
2, 27360, Note_on_c, 0, 70, 107
2, 27456, Note_on_c, 0, 70, 0
2, 27480, Note_on_c, 0, 71, 107
2, 27576, Note_on_c, 0, 71, 0
2, 27600, Note_on_c, 0, 73, 107
2, 27696, Note_on_c, 0, 73, 0
2, 27720, Note_on_c, 0, 74, 107
2, 27816, Note_on_c, 0, 74, 0
2, 27840, Note_on_c, 0, 76, 107
2, 27936, Note_on_c, 0, 76, 0
2, 27960, Note_on_c, 0, 69, 107
2, 28056, Note_on_c, 0, 69, 0
2, 28080, Note_on_c, 0, 71, 107
2, 28176, Note_on_c, 0, 78, 0
2, 28200, Note_on_c, 0, 79, 107
2, 28296, Note_on_c, 0, 79, 0
2, 28320, Note_on_c, 0, 81, 107
2, 28416, Note_on_c, 0, 81, 0
2, 28440, Note_on_c, 0, 83, 107
2, 28536, Note_on_c, 0, 83, 0
2, 28560, Note_on_c, 0, 84, 107
2, 28656, Note_on_c, 0, 84, 0
2, 28680, Note_on_c, 0, 81, 107
2, 28776, Note_on_c, 0, 81, 0
2, 28800, Note_on_c, 0, 79, 107
2, 28896, Note_on_c, 0, 79, 0
2, 28920, Note_on_c, 0, 78, 107
2, 29016, Note_on_c, 0, 78, 0
2, 29040, Note_on_c, 0, 76, 107
2, 29136, Note_on_c, 0, 76, 0
2, 29160, Note_on_c, 0, 74, 107
2, 29256, Note_on_c, 0, 74, 0
2, 29280, Note_on_c, 0, 76, 107
2, 29376, Note_on_c, 0, 76, 0
2, 29400, Note_on_c, 0, 73, 107
2, 29496, Note_on_c, 0, 73, 0
2, 29520, Note_on_c, 0, 78, 107
2, 29712, Note_on_c, 0, 78, 0
2, 29760, Note_on_c, 0, 79, 107
2, 29808, Note_on_c, 0, 71, 0
2, 29856, Note_on_c, 0, 79, 0
2, 29880, Note_on_c, 0, 70, 107
2, 29880, Note_on_c, 0, 73, 107
2, 29909, Note_on_c, 0, 73, 0
2, 29910, Note_on_c, 0, 74, 107
2, 29939, Note_on_c, 0, 74, 0
2, 29940, Note_on_c, 0, 73, 107
2, 30072, Note_on_c, 0, 70, 0
2, 30096, Note_on_c, 0, 73, 0
2, 30120, Note_on_c, 0, 71, 107
2, 30120, Note_on_c, 0, 71, 107
2, 30216, Note_on_c, 0, 71, 0
2, 30216, Note_on_c, 0, 71, 0
2, 30240, Note_on_c, 0, 71, 107
2, 30240, Note_on_c, 0, 83, 107
2, 30336, Note_on_c, 0, 83, 0
2, 30360, Note_on_c, 0, 81, 107
2, 30456, Note_on_c, 0, 81, 0
2, 30480, Note_on_c, 0, 80, 107
2, 30576, Note_on_c, 0, 80, 0
2, 30600, Note_on_c, 0, 78, 107
2, 30696, Note_on_c, 0, 78, 0
2, 30720, Note_on_c, 0, 80, 107
2, 30816, Note_on_c, 0, 80, 0
2, 30840, Note_on_c, 0, 76, 107
2, 30936, Note_on_c, 0, 76, 0
2, 30960, Note_on_c, 0, 75, 107
2, 31056, Note_on_c, 0, 75, 0
2, 31080, Note_on_c, 0, 76, 107
2, 31176, Note_on_c, 0, 76, 0
2, 31200, Note_on_c, 0, 78, 107
2, 31248, Note_on_c, 0, 71, 0
2, 31296, Note_on_c, 0, 78, 0
2, 31320, Note_on_c, 0, 71, 107
2, 31320, Note_on_c, 0, 71, 107
2, 31416, Note_on_c, 0, 71, 0
2, 31440, Note_on_c, 0, 73, 107
2, 31512, Note_on_c, 0, 71, 0
2, 31536, Note_on_c, 0, 73, 0
2, 31560, Note_on_c, 0, 69, 107
2, 31560, Note_on_c, 0, 75, 107
2, 31656, Note_on_c, 0, 75, 0
2, 31656, Note_on_c, 0, 69, 0
2, 31680, Note_on_c, 0, 76, 107
2, 31680, Note_on_c, 0, 68, 107
2, 31776, Note_on_c, 0, 76, 0
2, 31800, Note_on_c, 0, 71, 107
2, 31896, Note_on_c, 0, 71, 0
2, 31920, Note_on_c, 0, 76, 107
2, 31968, Note_on_c, 0, 68, 0
2, 32040, Note_on_c, 0, 66, 107
2, 32136, Note_on_c, 0, 76, 0
2, 32160, Note_on_c, 0, 76, 107
2, 32256, Note_on_c, 0, 76, 0
2, 32280, Note_on_c, 0, 74, 107
2, 32328, Note_on_c, 0, 66, 0
2, 32400, Note_on_c, 0, 64, 107
2, 32496, Note_on_c, 0, 74, 0
2, 32520, Note_on_c, 0, 74, 107
2, 32616, Note_on_c, 0, 74, 0
2, 32640, Note_on_c, 0, 73, 107
2, 32688, Note_on_c, 0, 64, 0
2, 32736, Note_on_c, 0, 73, 0
2, 32760, Note_on_c, 0, 73, 107
2, 32760, Note_on_c, 0, 66, 107
2, 32856, Note_on_c, 0, 73, 0
2, 32880, Note_on_c, 0, 71, 107
2, 32976, Note_on_c, 0, 71, 0
2, 33000, Note_on_c, 0, 69, 107
2, 33048, Note_on_c, 0, 66, 0
2, 33096, Note_on_c, 0, 69, 0
2, 33120, Note_on_c, 0, 59, 107
2, 33120, Note_on_c, 0, 68, 107
2, 33216, Note_on_c, 0, 59, 0
2, 33240, Note_on_c, 0, 61, 107
2, 33336, Note_on_c, 0, 61, 0
2, 33360, Note_on_c, 0, 63, 107
2, 33456, Note_on_c, 0, 63, 0
2, 33480, Note_on_c, 0, 64, 107
2, 33576, Note_on_c, 0, 64, 0
2, 33600, Note_on_c, 0, 63, 107
2, 33696, Note_on_c, 0, 63, 0
2, 33720, Note_on_c, 0, 66, 107
2, 33816, Note_on_c, 0, 66, 0
2, 33840, Note_on_c, 0, 64, 107
2, 33936, Note_on_c, 0, 68, 0
2, 33960, Note_on_c, 0, 69, 107
2, 34056, Note_on_c, 0, 69, 0
2, 34080, Note_on_c, 0, 71, 107
2, 34176, Note_on_c, 0, 71, 0
2, 34200, Note_on_c, 0, 73, 107
2, 34296, Note_on_c, 0, 73, 0
2, 34320, Note_on_c, 0, 71, 107
2, 34416, Note_on_c, 0, 71, 0
2, 34440, Note_on_c, 0, 74, 107
2, 34536, Note_on_c, 0, 74, 0
2, 34560, Note_on_c, 0, 73, 107
2, 34656, Note_on_c, 0, 64, 0
2, 34680, Note_on_c, 0, 66, 107
2, 34776, Note_on_c, 0, 66, 0
2, 34800, Note_on_c, 0, 68, 107
2, 34896, Note_on_c, 0, 68, 0
2, 34920, Note_on_c, 0, 69, 107
2, 35016, Note_on_c, 0, 69, 0
2, 35040, Note_on_c, 0, 68, 107
2, 35136, Note_on_c, 0, 68, 0
2, 35160, Note_on_c, 0, 71, 107
2, 35256, Note_on_c, 0, 71, 0
2, 35280, Note_on_c, 0, 69, 107
2, 35376, Note_on_c, 0, 73, 0
2, 35400, Note_on_c, 0, 74, 107
2, 35496, Note_on_c, 0, 74, 0
2, 35520, Note_on_c, 0, 76, 107
2, 35616, Note_on_c, 0, 76, 0
2, 35640, Note_on_c, 0, 78, 107
2, 35736, Note_on_c, 0, 78, 0
2, 35760, Note_on_c, 0, 76, 107
2, 35856, Note_on_c, 0, 76, 0
2, 35880, Note_on_c, 0, 79, 107
2, 35976, Note_on_c, 0, 79, 0
2, 36000, Note_on_c, 0, 78, 107
2, 36096, Note_on_c, 0, 69, 0
2, 36120, Note_on_c, 0, 71, 107
2, 36216, Note_on_c, 0, 71, 0
2, 36240, Note_on_c, 0, 73, 107
2, 36336, Note_on_c, 0, 73, 0
2, 36360, Note_on_c, 0, 74, 107
2, 36456, Note_on_c, 0, 74, 0
2, 36480, Note_on_c, 0, 73, 107
2, 36576, Note_on_c, 0, 73, 0
2, 36600, Note_on_c, 0, 76, 107
2, 36696, Note_on_c, 0, 76, 0
2, 36720, Note_on_c, 0, 74, 107
2, 36816, Note_on_c, 0, 78, 0
2, 36840, Note_on_c, 0, 80, 107
2, 36936, Note_on_c, 0, 80, 0
2, 36960, Note_on_c, 0, 81, 107
2, 37056, Note_on_c, 0, 81, 0
2, 37080, Note_on_c, 0, 83, 107
2, 37176, Note_on_c, 0, 83, 0
2, 37200, Note_on_c, 0, 78, 107
2, 37296, Note_on_c, 0, 78, 0
2, 37320, Note_on_c, 0, 81, 107
2, 37416, Note_on_c, 0, 81, 0
2, 37440, Note_on_c, 0, 80, 107
2, 37536, Note_on_c, 0, 80, 0
2, 37560, Note_on_c, 0, 78, 107
2, 37656, Note_on_c, 0, 78, 0
2, 37680, Note_on_c, 0, 76, 107
2, 37728, Note_on_c, 0, 74, 0
2, 37776, Note_on_c, 0, 76, 0
2, 37800, Note_on_c, 0, 81, 107
2, 37800, Note_on_c, 0, 73, 107
2, 37896, Note_on_c, 0, 73, 0
2, 37920, Note_on_c, 0, 71, 107
2, 38016, Note_on_c, 0, 71, 0
2, 38040, Note_on_c, 0, 69, 107
2, 38136, Note_on_c, 0, 69, 0
2, 38160, Note_on_c, 0, 71, 107
2, 38256, Note_on_c, 0, 81, 0
2, 38280, Note_on_c, 0, 80, 107
2, 38376, Note_on_c, 0, 80, 0
2, 38400, Note_on_c, 0, 78, 107
2, 38496, Note_on_c, 0, 78, 0
2, 38520, Note_on_c, 0, 80, 107
2, 38616, Note_on_c, 0, 80, 0
2, 38616, Note_on_c, 0, 71, 0
2, 38640, Note_on_c, 0, 73, 107
2, 38640, Note_on_c, 0, 76, 107
2, 38736, Note_on_c, 0, 76, 0
2, 38736, Note_on_c, 0, 73, 0
2, 38760, Note_on_c, 0, 74, 107
2, 38760, Note_on_c, 0, 78, 107
2, 38856, Note_on_c, 0, 78, 0
2, 38856, Note_on_c, 0, 74, 0
2, 38880, Note_on_c, 0, 76, 107
2, 38880, Note_on_c, 0, 79, 107
2, 38976, Note_on_c, 0, 76, 0
2, 39000, Note_on_c, 0, 74, 107
2, 39096, Note_on_c, 0, 74, 0
2, 39120, Note_on_c, 0, 78, 107
2, 39216, Note_on_c, 0, 78, 0
2, 39240, Note_on_c, 0, 76, 107
2, 39456, Note_on_c, 0, 79, 0
2, 39600, Note_on_c, 0, 78, 107
2, 39696, Note_on_c, 0, 76, 0
2, 39720, Note_on_c, 0, 69, 107
2, 39816, Note_on_c, 0, 69, 0
2, 39840, Note_on_c, 0, 73, 107
2, 39936, Note_on_c, 0, 73, 0
2, 39960, Note_on_c, 0, 74, 107
2, 40176, Note_on_c, 0, 78, 0
2, 40320, Note_on_c, 0, 76, 107
2, 40416, Note_on_c, 0, 74, 0
2, 40440, Note_on_c, 0, 68, 107
2, 40536, Note_on_c, 0, 68, 0
2, 40560, Note_on_c, 0, 71, 107
2, 40656, Note_on_c, 0, 71, 0
2, 40680, Note_on_c, 0, 73, 107
2, 40896, Note_on_c, 0, 76, 0
2, 41040, Note_on_c, 0, 74, 107
2, 41136, Note_on_c, 0, 73, 0
2, 41160, Note_on_c, 0, 71, 107
2, 41256, Note_on_c, 0, 71, 0
2, 41280, Note_on_c, 0, 69, 107
2, 41376, Note_on_c, 0, 69, 0
2, 41400, Note_on_c, 0, 71, 107
2, 41496, Note_on_c, 0, 74, 0
2, 41520, Note_on_c, 0, 73, 107
2, 41616, Note_on_c, 0, 73, 0
2, 41640, Note_on_c, 0, 71, 107
2, 41736, Note_on_c, 0, 71, 0
2, 41760, Note_on_c, 0, 73, 107
2, 41856, Note_on_c, 0, 71, 0
2, 41880, Note_on_c, 0, 69, 107
2, 41976, Note_on_c, 0, 69, 0
2, 42000, Note_on_c, 0, 67, 107
2, 42096, Note_on_c, 0, 67, 0
2, 42120, Note_on_c, 0, 66, 107
2, 42216, Note_on_c, 0, 66, 0
2, 42240, Note_on_c, 0, 67, 107
2, 42336, Note_on_c, 0, 67, 0
2, 42360, Note_on_c, 0, 64, 107
2, 42456, Note_on_c, 0, 64, 0
2, 42480, Note_on_c, 0, 66, 107
2, 42576, Note_on_c, 0, 73, 0
2, 42600, Note_on_c, 0, 74, 107
2, 42696, Note_on_c, 0, 74, 0
2, 42720, Note_on_c, 0, 73, 107
2, 42816, Note_on_c, 0, 73, 0
2, 42840, Note_on_c, 0, 71, 107
2, 42936, Note_on_c, 0, 71, 0
2, 42960, Note_on_c, 0, 73, 107
2, 43056, Note_on_c, 0, 73, 0
2, 43056, Note_on_c, 0, 66, 0
2, 43080, Note_on_c, 0, 69, 107
2, 43176, Note_on_c, 0, 69, 0
2, 43200, Note_on_c, 0, 68, 107
2, 43229, Note_on_c, 0, 68, 0
2, 43230, Note_on_c, 0, 69, 107
2, 43254, Note_on_c, 0, 69, 0
2, 43260, Note_on_c, 0, 68, 107
2, 43656, Note_on_c, 0, 68, 0
2, 43680, Note_on_c, 0, 69, 107
2, 43776, Note_on_c, 0, 69, 0
2, 43800, Note_on_c, 0, 71, 107
2, 43896, Note_on_c, 0, 71, 0
2, 43920, Note_on_c, 0, 64, 107
2, 44016, Note_on_c, 0, 64, 0
2, 44040, Note_on_c, 0, 62, 107
2, 44136, Note_on_c, 0, 62, 0
2, 44160, Note_on_c, 0, 61, 107
2, 44256, Note_on_c, 0, 61, 0
2, 44280, Note_on_c, 0, 59, 107
2, 44376, Note_on_c, 0, 59, 0
2, 44400, Note_on_c, 0, 61, 107
2, 44496, Note_on_c, 0, 61, 0
2, 44520, Note_on_c, 0, 57, 107
2, 44616, Note_on_c, 0, 57, 0
2, 44640, Note_on_c, 0, 56, 107
2, 44640, Note_on_c, 0, 76, 107
2, 44736, Note_on_c, 0, 76, 0
2, 44760, Note_on_c, 0, 74, 107
2, 44832, Note_on_c, 0, 56, 0
2, 44856, Note_on_c, 0, 74, 0
2, 44880, Note_on_c, 0, 73, 107
2, 44880, Note_on_c, 0, 57, 107
2, 44976, Note_on_c, 0, 57, 0
2, 44976, Note_on_c, 0, 73, 0
2, 45000, Note_on_c, 0, 59, 107
2, 45000, Note_on_c, 0, 71, 107
2, 45096, Note_on_c, 0, 71, 0
2, 45096, Note_on_c, 0, 59, 0
2, 45120, Note_on_c, 0, 74, 107
2, 45120, Note_on_c, 0, 64, 107
2, 45216, Note_on_c, 0, 64, 0
2, 45216, Note_on_c, 0, 74, 0
2, 45240, Note_on_c, 0, 66, 107
2, 45240, Note_on_c, 0, 73, 107
2, 45336, Note_on_c, 0, 73, 0
2, 45336, Note_on_c, 0, 66, 0
2, 45360, Note_on_c, 0, 74, 107
2, 45360, Note_on_c, 0, 68, 107
2, 45912, Note_on_c, 0, 68, 0
2, 45960, Note_on_c, 0, 69, 107
2, 46056, Note_on_c, 0, 69, 0
2, 46080, Note_on_c, 0, 71, 107
2, 46368, Note_on_c, 0, 74, 0
2, 46440, Note_on_c, 0, 73, 107
2, 46536, Note_on_c, 0, 71, 0
2, 46560, Note_on_c, 0, 69, 107
2, 46656, Note_on_c, 0, 69, 0
2, 46680, Note_on_c, 0, 67, 107
2, 46776, Note_on_c, 0, 67, 0
2, 46800, Note_on_c, 0, 66, 107
2, 46896, Note_on_c, 0, 73, 0
2, 46920, Note_on_c, 0, 74, 107
2, 47016, Note_on_c, 0, 74, 0
2, 47040, Note_on_c, 0, 73, 107
2, 47088, Note_on_c, 0, 66, 0
2, 47136, Note_on_c, 0, 73, 0
2, 47160, Note_on_c, 0, 71, 107
2, 47160, Note_on_c, 0, 65, 107
2, 47256, Note_on_c, 0, 71, 0
2, 47280, Note_on_c, 0, 72, 107
2, 47376, Note_on_c, 0, 72, 0
2, 47400, Note_on_c, 0, 69, 107
2, 47496, Note_on_c, 0, 69, 0
2, 47520, Note_on_c, 0, 68, 107
2, 47616, Note_on_c, 0, 65, 0
2, 47640, Note_on_c, 0, 64, 107
2, 47736, Note_on_c, 0, 64, 0
2, 47760, Note_on_c, 0, 62, 107
2, 47856, Note_on_c, 0, 62, 0
2, 47880, Note_on_c, 0, 61, 107
2, 47976, Note_on_c, 0, 61, 0
2, 47976, Note_on_c, 0, 68, 0
2, 48000, Note_on_c, 0, 62, 107
2, 48000, Note_on_c, 0, 71, 107
2, 48096, Note_on_c, 0, 71, 0
2, 48096, Note_on_c, 0, 62, 0
2, 48120, Note_on_c, 0, 59, 107
2, 48120, Note_on_c, 0, 68, 107
2, 48216, Note_on_c, 0, 68, 0
2, 48216, Note_on_c, 0, 59, 0
2, 48240, Note_on_c, 0, 64, 107
2, 48240, Note_on_c, 0, 64, 107
2, 48336, Note_on_c, 0, 64, 0
2, 48360, Note_on_c, 0, 76, 107
2, 48456, Note_on_c, 0, 76, 0
2, 48480, Note_on_c, 0, 69, 107
2, 48528, Note_on_c, 0, 64, 0
2, 48600, Note_on_c, 0, 62, 107
2, 48696, Note_on_c, 0, 69, 0
2, 48720, Note_on_c, 0, 71, 107
2, 48816, Note_on_c, 0, 71, 0
2, 48840, Note_on_c, 0, 68, 107
2, 48888, Note_on_c, 0, 62, 0
2, 48936, Note_on_c, 0, 68, 0
2, 48960, Note_on_c, 0, 69, 107
2, 48960, Note_on_c, 0, 81, 107
2, 49056, Note_on_c, 0, 81, 0
2, 49080, Note_on_c, 0, 80, 107
2, 49176, Note_on_c, 0, 80, 0
2, 49200, Note_on_c, 0, 78, 107
2, 49296, Note_on_c, 0, 78, 0
2, 49320, Note_on_c, 0, 76, 107
2, 49416, Note_on_c, 0, 76, 0
2, 49440, Note_on_c, 0, 78, 107
2, 49536, Note_on_c, 0, 78, 0
2, 49560, Note_on_c, 0, 74, 107
2, 49656, Note_on_c, 0, 74, 0
2, 49680, Note_on_c, 0, 73, 107
2, 49776, Note_on_c, 0, 69, 0
2, 49800, Note_on_c, 0, 68, 107
2, 49872, Note_on_c, 0, 73, 0
2, 49896, Note_on_c, 0, 68, 0
2, 49920, Note_on_c, 0, 74, 107
2, 49920, Note_on_c, 0, 66, 107
2, 50016, Note_on_c, 0, 66, 0
2, 50016, Note_on_c, 0, 74, 0
2, 50040, Note_on_c, 0, 64, 107
2, 50040, Note_on_c, 0, 73, 107
2, 50136, Note_on_c, 0, 64, 0
2, 50160, Note_on_c, 0, 66, 107
2, 50232, Note_on_c, 0, 73, 0
2, 50256, Note_on_c, 0, 66, 0
2, 50280, Note_on_c, 0, 62, 107
2, 50280, Note_on_c, 0, 71, 107
2, 50376, Note_on_c, 0, 71, 0
2, 50376, Note_on_c, 0, 62, 0
2, 50400, Note_on_c, 0, 69, 107
2, 50400, Note_on_c, 0, 69, 107
2, 50400, Note_on_c, 0, 61, 107
2, 50496, Note_on_c, 0, 61, 0
2, 50496, Note_on_c, 0, 69, 0
2, 50520, Note_on_c, 0, 62, 107
2, 50520, Note_on_c, 0, 71, 107
2, 50616, Note_on_c, 0, 71, 0
2, 50616, Note_on_c, 0, 62, 0
2, 50640, Note_on_c, 0, 64, 107
2, 50640, Note_on_c, 0, 73, 107
2, 50736, Note_on_c, 0, 73, 0
2, 50736, Note_on_c, 0, 64, 0
2, 50760, Note_on_c, 0, 74, 107
2, 50760, Note_on_c, 0, 66, 107
2, 50856, Note_on_c, 0, 66, 0
2, 50856, Note_on_c, 0, 74, 0
2, 50880, Note_on_c, 0, 62, 107
2, 50880, Note_on_c, 0, 78, 107
2, 50976, Note_on_c, 0, 78, 0
2, 50976, Note_on_c, 0, 62, 0
2, 51000, Note_on_c, 0, 61, 107
2, 51000, Note_on_c, 0, 76, 107
2, 51096, Note_on_c, 0, 76, 0
2, 51096, Note_on_c, 0, 61, 0
2, 51120, Note_on_c, 0, 78, 107
2, 51120, Note_on_c, 0, 62, 107
2, 51216, Note_on_c, 0, 62, 0
2, 51216, Note_on_c, 0, 78, 0
2, 51216, Note_on_c, 0, 69, 0
2, 51240, Note_on_c, 0, 74, 107
2, 51240, Note_on_c, 0, 74, 107
2, 51240, Note_on_c, 0, 66, 107
2, 51336, Note_on_c, 0, 66, 0
2, 51336, Note_on_c, 0, 74, 0
2, 51360, Note_on_c, 0, 76, 107
2, 51360, Note_on_c, 0, 64, 107
2, 51456, Note_on_c, 0, 64, 0
2, 51456, Note_on_c, 0, 76, 0
2, 51480, Note_on_c, 0, 78, 107
2, 51480, Note_on_c, 0, 62, 107
2, 51576, Note_on_c, 0, 62, 0
2, 51576, Note_on_c, 0, 78, 0
2, 51600, Note_on_c, 0, 66, 107
2, 51600, Note_on_c, 0, 81, 107
2, 51696, Note_on_c, 0, 81, 0
2, 51696, Note_on_c, 0, 66, 0
2, 51720, Note_on_c, 0, 64, 107
2, 51720, Note_on_c, 0, 80, 107
2, 51768, Note_on_c, 0, 74, 0
2, 51816, Note_on_c, 0, 80, 0
2, 51816, Note_on_c, 0, 64, 0
2, 51840, Note_on_c, 0, 78, 107
2, 51840, Note_on_c, 0, 81, 107
2, 51840, Note_on_c, 0, 74, 107
2, 51840, Note_on_c, 0, 66, 107
2, 51936, Note_on_c, 0, 66, 0
2, 51960, Note_on_c, 0, 69, 107
2, 52056, Note_on_c, 0, 69, 0
2, 52080, Note_on_c, 0, 68, 107
2, 52176, Note_on_c, 0, 68, 0
2, 52200, Note_on_c, 0, 69, 107
2, 52296, Note_on_c, 0, 74, 0
2, 52296, Note_on_c, 0, 78, 0
2, 52320, Note_on_c, 0, 73, 107
2, 52320, Note_on_c, 0, 76, 107
2, 52416, Note_on_c, 0, 76, 0
2, 52416, Note_on_c, 0, 73, 0
2, 52416, Note_on_c, 0, 81, 0
2, 52440, Note_on_c, 0, 71, 107
2, 52440, Note_on_c, 0, 74, 107
2, 52536, Note_on_c, 0, 74, 0
2, 52536, Note_on_c, 0, 71, 0
2, 52560, Note_on_c, 0, 73, 107
2, 52560, Note_on_c, 0, 81, 107
2, 52560, Note_on_c, 0, 69, 107
2, 52560, Note_on_c, 0, 76, 107
2, 52944, Note_on_c, 0, 76, 0
2, 52944, Note_on_c, 0, 69, 0
2, 52944, Note_on_c, 0, 73, 0
2, 53136, Note_on_c, 0, 81, 0
2, 53136, Note_on_c, 0, 69, 0
2, 53136, End_track
3, 0, Start_track
3, 0, MIDI_port, 0
3, 0, Title_t, "J.S. Bach, Edition Wood"
3, 0, Program_c, 1, 0
3, 0, Control_c, 1, 7, 100
3, 0, Control_c, 1, 10, 64
3, 0, Note_on_c, 1, 45, 107
3, 48, Note_on_c, 1, 45, 0
3, 60, Note_on_c, 1, 49, 107
3, 108, Note_on_c, 1, 49, 0
3, 120, Note_on_c, 1, 52, 107
3, 168, Note_on_c, 1, 52, 0
3, 180, Note_on_c, 1, 57, 107
3, 228, Note_on_c, 1, 57, 0
3, 240, Note_on_c, 1, 56, 107
3, 288, Note_on_c, 1, 56, 0
3, 300, Note_on_c, 1, 54, 107
3, 348, Note_on_c, 1, 54, 0
3, 360, Note_on_c, 1, 52, 107
3, 408, Note_on_c, 1, 52, 0
3, 420, Note_on_c, 1, 56, 107
3, 468, Note_on_c, 1, 56, 0
3, 480, Note_on_c, 1, 59, 107
3, 528, Note_on_c, 1, 59, 0
3, 540, Note_on_c, 1, 62, 107
3, 588, Note_on_c, 1, 62, 0
3, 600, Note_on_c, 1, 61, 107
3, 648, Note_on_c, 1, 61, 0
3, 660, Note_on_c, 1, 59, 107
3, 708, Note_on_c, 1, 59, 0
3, 720, Note_on_c, 1, 57, 107
3, 768, Note_on_c, 1, 57, 0
3, 780, Note_on_c, 1, 61, 107
3, 828, Note_on_c, 1, 61, 0
3, 840, Note_on_c, 1, 64, 107
3, 888, Note_on_c, 1, 64, 0
3, 900, Note_on_c, 1, 69, 107
3, 948, Note_on_c, 1, 69, 0
3, 960, Note_on_c, 1, 68, 107
3, 1008, Note_on_c, 1, 68, 0
3, 1020, Note_on_c, 1, 66, 107
3, 1068, Note_on_c, 1, 66, 0
3, 1080, Note_on_c, 1, 64, 107
3, 1128, Note_on_c, 1, 64, 0
3, 1140, Note_on_c, 1, 68, 107
3, 1188, Note_on_c, 1, 68, 0
3, 1200, Note_on_c, 1, 71, 107
3, 1248, Note_on_c, 1, 71, 0
3, 1260, Note_on_c, 1, 74, 107
3, 1308, Note_on_c, 1, 74, 0
3, 1320, Note_on_c, 1, 73, 107
3, 1368, Note_on_c, 1, 73, 0
3, 1380, Note_on_c, 1, 71, 107
3, 1428, Note_on_c, 1, 71, 0
3, 1440, Note_on_c, 1, 69, 107
3, 1488, Note_on_c, 1, 69, 0
3, 1500, Note_on_c, 1, 71, 107
3, 1548, Note_on_c, 1, 71, 0
3, 1560, Note_on_c, 1, 73, 107
3, 1608, Note_on_c, 1, 73, 0
3, 1620, Note_on_c, 1, 74, 107
3, 1668, Note_on_c, 1, 74, 0
3, 1680, Note_on_c, 1, 76, 107
3, 1728, Note_on_c, 1, 76, 0
3, 1740, Note_on_c, 1, 78, 107
3, 1788, Note_on_c, 1, 78, 0
3, 1800, Note_on_c, 1, 80, 107
3, 1848, Note_on_c, 1, 80, 0
3, 1860, Note_on_c, 1, 81, 107
3, 1908, Note_on_c, 1, 81, 0
3, 1920, Note_on_c, 1, 83, 107
3, 1968, Note_on_c, 1, 83, 0
3, 1980, Note_on_c, 1, 80, 107
3, 2028, Note_on_c, 1, 80, 0
3, 2040, Note_on_c, 1, 76, 107
3, 2088, Note_on_c, 1, 76, 0
3, 2100, Note_on_c, 1, 80, 107
3, 2148, Note_on_c, 1, 80, 0
3, 2160, Note_on_c, 1, 81, 107
3, 2256, Note_on_c, 1, 81, 0
3, 2280, Note_on_c, 1, 80, 107
3, 2328, Note_on_c, 1, 80, 0
3, 2340, Note_on_c, 1, 78, 107
3, 2388, Note_on_c, 1, 78, 0
3, 2400, Note_on_c, 1, 76, 107
3, 2448, Note_on_c, 1, 76, 0
3, 2460, Note_on_c, 1, 74, 107
3, 2508, Note_on_c, 1, 74, 0
3, 2580, Note_on_c, 1, 71, 107
3, 2628, Note_on_c, 1, 71, 0
3, 2640, Note_on_c, 1, 69, 107
3, 2688, Note_on_c, 1, 69, 0
3, 2700, Note_on_c, 1, 68, 107
3, 2748, Note_on_c, 1, 68, 0
3, 2760, Note_on_c, 1, 69, 107
3, 2817, Note_on_c, 1, 69, 0
3, 2820, Note_on_c, 1, 64, 107
3, 2868, Note_on_c, 1, 64, 0
3, 2880, Note_on_c, 1, 57, 107
3, 2880, Note_on_c, 1, 64, 107
3, 3072, Note_on_c, 1, 64, 0
3, 3072, Note_on_c, 1, 57, 0
3, 5040, Note_on_c, 1, 64, 107
3, 5136, Note_on_c, 1, 64, 0
3, 5160, Note_on_c, 1, 62, 107
3, 5256, Note_on_c, 1, 62, 0
3, 5280, Note_on_c, 1, 61, 107
3, 5376, Note_on_c, 1, 61, 0
3, 5400, Note_on_c, 1, 59, 107
3, 5496, Note_on_c, 1, 59, 0
3, 5520, Note_on_c, 1, 61, 107
3, 5616, Note_on_c, 1, 61, 0
3, 5640, Note_on_c, 1, 57, 107
3, 5736, Note_on_c, 1, 57, 0
3, 5760, Note_on_c, 1, 56, 107
3, 6312, Note_on_c, 1, 56, 0
3, 6360, Note_on_c, 1, 52, 107
3, 6456, Note_on_c, 1, 52, 0
3, 6480, Note_on_c, 1, 57, 107
3, 6576, Note_on_c, 1, 57, 0
3, 6600, Note_on_c, 1, 56, 107
3, 6696, Note_on_c, 1, 56, 0
3, 6720, Note_on_c, 1, 54, 107
3, 6816, Note_on_c, 1, 54, 0
3, 6840, Note_on_c, 1, 52, 107
3, 6936, Note_on_c, 1, 52, 0
3, 6960, Note_on_c, 1, 54, 107
3, 7056, Note_on_c, 1, 54, 0
3, 7080, Note_on_c, 1, 50, 107
3, 7176, Note_on_c, 1, 50, 0
3, 7200, Note_on_c, 1, 49, 107
3, 7440, Note_on_c, 1, 52, 107
3, 7536, Note_on_c, 1, 52, 0
3, 7560, Note_on_c, 1, 57, 107
3, 7752, Note_on_c, 1, 49, 0
3, 7800, Note_on_c, 1, 45, 107
3, 7896, Note_on_c, 1, 45, 0
3, 7920, Note_on_c, 1, 50, 107
3, 8016, Note_on_c, 1, 57, 0
3, 8040, Note_on_c, 1, 57, 107
3, 8136, Note_on_c, 1, 57, 0
3, 8160, Note_on_c, 1, 55, 107
3, 8208, Note_on_c, 1, 50, 0
3, 8256, Note_on_c, 1, 55, 0
3, 8280, Note_on_c, 1, 54, 107
3, 8376, Note_on_c, 1, 54, 0
3, 8400, Note_on_c, 1, 55, 107
3, 8496, Note_on_c, 1, 55, 0
3, 8520, Note_on_c, 1, 52, 107
3, 8616, Note_on_c, 1, 52, 0
3, 8640, Note_on_c, 1, 51, 107
3, 8832, Note_on_c, 1, 51, 0
3, 8880, Note_on_c, 1, 54, 107
3, 8976, Note_on_c, 1, 54, 0
3, 9000, Note_on_c, 1, 51, 107
3, 9192, Note_on_c, 1, 51, 0
3, 9240, Note_on_c, 1, 47, 107
3, 9336, Note_on_c, 1, 47, 0
3, 9360, Note_on_c, 1, 52, 107
3, 9456, Note_on_c, 1, 52, 0
3, 9480, Note_on_c, 1, 51, 107
3, 9576, Note_on_c, 1, 51, 0
3, 9600, Note_on_c, 1, 49, 107
3, 9696, Note_on_c, 1, 49, 0
3, 9720, Note_on_c, 1, 47, 107
3, 9816, Note_on_c, 1, 47, 0
3, 9840, Note_on_c, 1, 49, 107
3, 9936, Note_on_c, 1, 49, 0
3, 9960, Note_on_c, 1, 45, 107
3, 10056, Note_on_c, 1, 45, 0
3, 10080, Note_on_c, 1, 44, 107
3, 10200, Note_on_c, 1, 47, 107
3, 10296, Note_on_c, 1, 47, 0
3, 10320, Note_on_c, 1, 52, 107
3, 10368, Note_on_c, 1, 44, 0
3, 10416, Note_on_c, 1, 52, 0
3, 10440, Note_on_c, 1, 45, 107
3, 10560, Note_on_c, 1, 49, 107
3, 10656, Note_on_c, 1, 49, 0
3, 10680, Note_on_c, 1, 54, 107
3, 10728, Note_on_c, 1, 45, 0
3, 10776, Note_on_c, 1, 54, 0
3, 10800, Note_on_c, 1, 47, 107
3, 10800, Note_on_c, 1, 47, 107
3, 10896, Note_on_c, 1, 47, 0
3, 10920, Note_on_c, 1, 59, 107
3, 10992, Note_on_c, 1, 47, 0
3, 11016, Note_on_c, 1, 59, 0
3, 11040, Note_on_c, 1, 61, 107
3, 11136, Note_on_c, 1, 61, 0
3, 11160, Note_on_c, 1, 63, 107
3, 11256, Note_on_c, 1, 63, 0
3, 11280, Note_on_c, 1, 61, 107
3, 11376, Note_on_c, 1, 61, 0
3, 11400, Note_on_c, 1, 59, 107
3, 11496, Note_on_c, 1, 59, 0
3, 11520, Note_on_c, 1, 64, 107
3, 11616, Note_on_c, 1, 64, 0
3, 11640, Note_on_c, 1, 56, 107
3, 11736, Note_on_c, 1, 56, 0
3, 11760, Note_on_c, 1, 57, 107
3, 11856, Note_on_c, 1, 57, 0
3, 11880, Note_on_c, 1, 59, 107
3, 11976, Note_on_c, 1, 59, 0
3, 12000, Note_on_c, 1, 57, 107
3, 12096, Note_on_c, 1, 57, 0
3, 12120, Note_on_c, 1, 59, 107
3, 12216, Note_on_c, 1, 59, 0
3, 12240, Note_on_c, 1, 52, 107
3, 12480, Note_on_c, 1, 54, 107
3, 12576, Note_on_c, 1, 54, 0
3, 12600, Note_on_c, 1, 56, 107
3, 12792, Note_on_c, 1, 56, 0
3, 12960, Note_on_c, 1, 59, 107
3, 13200, Note_on_c, 1, 59, 0
3, 13680, Note_on_c, 1, 56, 107
3, 13776, Note_on_c, 1, 52, 0
3, 13800, Note_on_c, 1, 51, 107
3, 13872, Note_on_c, 1, 56, 0
3, 13896, Note_on_c, 1, 51, 0
3, 13920, Note_on_c, 1, 57, 107
3, 13920, Note_on_c, 1, 49, 107
3, 14016, Note_on_c, 1, 49, 0
3, 14016, Note_on_c, 1, 57, 0
3, 14040, Note_on_c, 1, 56, 107
3, 14040, Note_on_c, 1, 47, 107
3, 14136, Note_on_c, 1, 47, 0
3, 14160, Note_on_c, 1, 49, 107
3, 14232, Note_on_c, 1, 56, 0
3, 14256, Note_on_c, 1, 49, 0
3, 14280, Note_on_c, 1, 45, 107
3, 14280, Note_on_c, 1, 54, 107
3, 14376, Note_on_c, 1, 54, 0
3, 14376, Note_on_c, 1, 45, 0
3, 14400, Note_on_c, 1, 52, 107
3, 14400, Note_on_c, 1, 44, 107
3, 14592, Note_on_c, 1, 44, 0
3, 14640, Note_on_c, 1, 45, 107
3, 14736, Note_on_c, 1, 45, 0
3, 14760, Note_on_c, 1, 44, 107
3, 14856, Note_on_c, 1, 44, 0
3, 14880, Note_on_c, 1, 42, 107
3, 14976, Note_on_c, 1, 42, 0
3, 14976, Note_on_c, 1, 52, 0
3, 15000, Note_on_c, 1, 40, 107
3, 15096, Note_on_c, 1, 40, 0
3, 15120, Note_on_c, 1, 42, 107
3, 15216, Note_on_c, 1, 42, 0
3, 15240, Note_on_c, 1, 44, 107
3, 15336, Note_on_c, 1, 44, 0
3, 15360, Note_on_c, 1, 45, 107
3, 15456, Note_on_c, 1, 45, 0
3, 15480, Note_on_c, 1, 44, 107
3, 15576, Note_on_c, 1, 44, 0
3, 15600, Note_on_c, 1, 45, 107
3, 15696, Note_on_c, 1, 45, 0
3, 15720, Note_on_c, 1, 47, 107
3, 15816, Note_on_c, 1, 47, 0
3, 15840, Note_on_c, 1, 45, 107
3, 16032, Note_on_c, 1, 45, 0
3, 16080, Note_on_c, 1, 47, 107
3, 16176, Note_on_c, 1, 47, 0
3, 16200, Note_on_c, 1, 49, 107
3, 16296, Note_on_c, 1, 49, 0
3, 16320, Note_on_c, 1, 47, 107
3, 16416, Note_on_c, 1, 47, 0
3, 16440, Note_on_c, 1, 45, 107
3, 16536, Note_on_c, 1, 45, 0
3, 16560, Note_on_c, 1, 47, 107
3, 16656, Note_on_c, 1, 47, 0
3, 16680, Note_on_c, 1, 49, 107
3, 16776, Note_on_c, 1, 49, 0
3, 16800, Note_on_c, 1, 50, 107
3, 16896, Note_on_c, 1, 50, 0
3, 16920, Note_on_c, 1, 49, 107
3, 17016, Note_on_c, 1, 49, 0
3, 17040, Note_on_c, 1, 50, 107
3, 17136, Note_on_c, 1, 50, 0
3, 17160, Note_on_c, 1, 52, 107
3, 17256, Note_on_c, 1, 52, 0
3, 17280, Note_on_c, 1, 50, 107
3, 17376, Note_on_c, 1, 50, 0
3, 17400, Note_on_c, 1, 52, 107
3, 17496, Note_on_c, 1, 52, 0
3, 17520, Note_on_c, 1, 54, 107
3, 17616, Note_on_c, 1, 54, 0
3, 17640, Note_on_c, 1, 44, 107
3, 17736, Note_on_c, 1, 44, 0
3, 17760, Note_on_c, 1, 45, 107
3, 17856, Note_on_c, 1, 45, 0
3, 17880, Note_on_c, 1, 47, 107
3, 17976, Note_on_c, 1, 47, 0
3, 18000, Note_on_c, 1, 40, 107
3, 18288, Note_on_c, 1, 40, 0
3, 18360, Note_on_c, 1, 42, 107
3, 18456, Note_on_c, 1, 42, 0
3, 18480, Note_on_c, 1, 40, 107
3, 18576, Note_on_c, 1, 40, 0
3, 18600, Note_on_c, 1, 38, 107
3, 18696, Note_on_c, 1, 38, 0
3, 18720, Note_on_c, 1, 37, 107
3, 18720, Note_on_c, 1, 61, 107
3, 18816, Note_on_c, 1, 61, 0
3, 18840, Note_on_c, 1, 59, 107
3, 18936, Note_on_c, 1, 59, 0
3, 18960, Note_on_c, 1, 57, 107
3, 19056, Note_on_c, 1, 57, 0
3, 19080, Note_on_c, 1, 56, 107
3, 19176, Note_on_c, 1, 56, 0
3, 19200, Note_on_c, 1, 59, 107
3, 19296, Note_on_c, 1, 59, 0
3, 19320, Note_on_c, 1, 57, 107
3, 19416, Note_on_c, 1, 57, 0
3, 19440, Note_on_c, 1, 59, 107
3, 19992, Note_on_c, 1, 37, 0
3, 20016, Note_on_c, 1, 59, 0
3, 20040, Note_on_c, 1, 49, 107
3, 20136, Note_on_c, 1, 49, 0
3, 20160, Note_on_c, 1, 50, 107
3, 20160, Note_on_c, 1, 57, 107
3, 20448, Note_on_c, 1, 50, 0
3, 20520, Note_on_c, 1, 51, 107
3, 20616, Note_on_c, 1, 57, 0
3, 20640, Note_on_c, 1, 56, 107
3, 20736, Note_on_c, 1, 56, 0
3, 20760, Note_on_c, 1, 54, 107
3, 20808, Note_on_c, 1, 51, 0
3, 20856, Note_on_c, 1, 54, 0
3, 20880, Note_on_c, 1, 56, 107
3, 20880, Note_on_c, 1, 52, 107
3, 21168, Note_on_c, 1, 52, 0
3, 21240, Note_on_c, 1, 53, 107
3, 21336, Note_on_c, 1, 56, 0
3, 21360, Note_on_c, 1, 56, 107
3, 21456, Note_on_c, 1, 56, 0
3, 21480, Note_on_c, 1, 61, 107
3, 21528, Note_on_c, 1, 53, 0
3, 21576, Note_on_c, 1, 61, 0
3, 21600, Note_on_c, 1, 54, 107
3, 21600, Note_on_c, 1, 54, 107
3, 21792, Note_on_c, 1, 54, 0
3, 21840, Note_on_c, 1, 47, 107
3, 21936, Note_on_c, 1, 47, 0
3, 21960, Note_on_c, 1, 49, 107
3, 22056, Note_on_c, 1, 54, 0
3, 22080, Note_on_c, 1, 54, 107
3, 22176, Note_on_c, 1, 54, 0
3, 22200, Note_on_c, 1, 53, 107
3, 22248, Note_on_c, 1, 49, 0
3, 22296, Note_on_c, 1, 53, 0
3, 22320, Note_on_c, 1, 54, 107
3, 22320, Note_on_c, 1, 42, 107
3, 22320, Note_on_c, 1, 54, 107
3, 22512, Note_on_c, 1, 42, 0
3, 22512, Note_on_c, 1, 54, 0
3, 22560, Note_on_c, 1, 56, 107
3, 22656, Note_on_c, 1, 56, 0
3, 22680, Note_on_c, 1, 58, 107
3, 22872, Note_on_c, 1, 58, 0
3, 22920, Note_on_c, 1, 59, 107
3, 23016, Note_on_c, 1, 59, 0
3, 23040, Note_on_c, 1, 61, 107
3, 23232, Note_on_c, 1, 61, 0
3, 23760, Note_on_c, 1, 58, 107
3, 23952, Note_on_c, 1, 58, 0
3, 24000, Note_on_c, 1, 59, 107
3, 24096, Note_on_c, 1, 59, 0
3, 24120, Note_on_c, 1, 58, 107
3, 24312, Note_on_c, 1, 58, 0
3, 24360, Note_on_c, 1, 56, 107
3, 24456, Note_on_c, 1, 56, 0
3, 24480, Note_on_c, 1, 54, 107
3, 24672, Note_on_c, 1, 54, 0
3, 24672, Note_on_c, 1, 54, 0
3, 24720, Note_on_c, 1, 52, 107
3, 24816, Note_on_c, 1, 52, 0
3, 24840, Note_on_c, 1, 50, 107
3, 25032, Note_on_c, 1, 50, 0
3, 25080, Note_on_c, 1, 49, 107
3, 25176, Note_on_c, 1, 49, 0
3, 25200, Note_on_c, 1, 47, 107
3, 25392, Note_on_c, 1, 47, 0
3, 27360, Note_on_c, 1, 54, 107
3, 27456, Note_on_c, 1, 54, 0
3, 27480, Note_on_c, 1, 56, 107
3, 27576, Note_on_c, 1, 56, 0
3, 27600, Note_on_c, 1, 58, 107
3, 27696, Note_on_c, 1, 58, 0
3, 27720, Note_on_c, 1, 59, 107
3, 27816, Note_on_c, 1, 59, 0
3, 27840, Note_on_c, 1, 58, 107
3, 27936, Note_on_c, 1, 58, 0
3, 27960, Note_on_c, 1, 61, 107
3, 28056, Note_on_c, 1, 61, 0
3, 28080, Note_on_c, 1, 62, 107
3, 28632, Note_on_c, 1, 62, 0
3, 28680, Note_on_c, 1, 63, 107
3, 28776, Note_on_c, 1, 63, 0
3, 28800, Note_on_c, 1, 64, 107
3, 28896, Note_on_c, 1, 64, 0
3, 28920, Note_on_c, 1, 66, 107
3, 29016, Note_on_c, 1, 66, 0
3, 29040, Note_on_c, 1, 67, 107
3, 29136, Note_on_c, 1, 67, 0
3, 29160, Note_on_c, 1, 66, 107
3, 29256, Note_on_c, 1, 66, 0
3, 29280, Note_on_c, 1, 67, 107
3, 29376, Note_on_c, 1, 67, 0
3, 29400, Note_on_c, 1, 64, 107
3, 29496, Note_on_c, 1, 64, 0
3, 29520, Note_on_c, 1, 62, 107
3, 29616, Note_on_c, 1, 62, 0
3, 29640, Note_on_c, 1, 66, 107
3, 29736, Note_on_c, 1, 66, 0
3, 29760, Note_on_c, 1, 64, 107
3, 29856, Note_on_c, 1, 64, 0
3, 29880, Note_on_c, 1, 66, 107
3, 29976, Note_on_c, 1, 66, 0
3, 30000, Note_on_c, 1, 61, 107
3, 30096, Note_on_c, 1, 61, 0
3, 30120, Note_on_c, 1, 64, 107
3, 30216, Note_on_c, 1, 64, 0
3, 30240, Note_on_c, 1, 63, 107
3, 30792, Note_on_c, 1, 63, 0
3, 30840, Note_on_c, 1, 64, 107
3, 30936, Note_on_c, 1, 64, 0
3, 30960, Note_on_c, 1, 66, 107
3, 31056, Note_on_c, 1, 66, 0
3, 31080, Note_on_c, 1, 59, 107
3, 31176, Note_on_c, 1, 59, 0
3, 31200, Note_on_c, 1, 57, 107
3, 31296, Note_on_c, 1, 57, 0
3, 31320, Note_on_c, 1, 56, 107
3, 31416, Note_on_c, 1, 56, 0
3, 31440, Note_on_c, 1, 57, 107
3, 31536, Note_on_c, 1, 57, 0
3, 31560, Note_on_c, 1, 54, 107
3, 31656, Note_on_c, 1, 54, 0
3, 31680, Note_on_c, 1, 52, 107
3, 31776, Note_on_c, 1, 52, 0
3, 31800, Note_on_c, 1, 54, 107
3, 31896, Note_on_c, 1, 54, 0
3, 31920, Note_on_c, 1, 56, 107
3, 32016, Note_on_c, 1, 56, 0
3, 32040, Note_on_c, 1, 57, 107
3, 32136, Note_on_c, 1, 57, 0
3, 32160, Note_on_c, 1, 54, 107
3, 32256, Note_on_c, 1, 54, 0
3, 32280, Note_on_c, 1, 59, 107
3, 32376, Note_on_c, 1, 59, 0
3, 32400, Note_on_c, 1, 56, 107
3, 32496, Note_on_c, 1, 56, 0
3, 32520, Note_on_c, 1, 52, 107
3, 32616, Note_on_c, 1, 52, 0
3, 32640, Note_on_c, 1, 57, 107
3, 32736, Note_on_c, 1, 57, 0
3, 32880, Note_on_c, 1, 54, 107
3, 32976, Note_on_c, 1, 54, 0
3, 33000, Note_on_c, 1, 59, 107
3, 33096, Note_on_c, 1, 59, 0
3, 33120, Note_on_c, 1, 52, 107
3, 33360, Note_on_c, 1, 47, 107
3, 33456, Note_on_c, 1, 47, 0
3, 33480, Note_on_c, 1, 44, 107
3, 33576, Note_on_c, 1, 44, 0
3, 33600, Note_on_c, 1, 45, 107
3, 33696, Note_on_c, 1, 45, 0
3, 33720, Note_on_c, 1, 47, 107
3, 33816, Note_on_c, 1, 47, 0
3, 33840, Note_on_c, 1, 40, 107
3, 33936, Note_on_c, 1, 52, 0
3, 33960, Note_on_c, 1, 54, 107
3, 34032, Note_on_c, 1, 40, 0
3, 34056, Note_on_c, 1, 54, 0
3, 34080, Note_on_c, 1, 56, 107
3, 34176, Note_on_c, 1, 56, 0
3, 34200, Note_on_c, 1, 57, 107
3, 34296, Note_on_c, 1, 57, 0
3, 34320, Note_on_c, 1, 56, 107
3, 34416, Note_on_c, 1, 56, 0
3, 34440, Note_on_c, 1, 59, 107
3, 34536, Note_on_c, 1, 59, 0
3, 34560, Note_on_c, 1, 57, 107
3, 34800, Note_on_c, 1, 52, 107
3, 34896, Note_on_c, 1, 52, 0
3, 34920, Note_on_c, 1, 49, 107
3, 35016, Note_on_c, 1, 49, 0
3, 35040, Note_on_c, 1, 50, 107
3, 35136, Note_on_c, 1, 50, 0
3, 35160, Note_on_c, 1, 52, 107
3, 35256, Note_on_c, 1, 52, 0
3, 35280, Note_on_c, 1, 45, 107
3, 35376, Note_on_c, 1, 57, 0
3, 35400, Note_on_c, 1, 59, 107
3, 35472, Note_on_c, 1, 45, 0
3, 35496, Note_on_c, 1, 59, 0
3, 35520, Note_on_c, 1, 61, 107
3, 35616, Note_on_c, 1, 61, 0
3, 35640, Note_on_c, 1, 62, 107
3, 35736, Note_on_c, 1, 62, 0
3, 35760, Note_on_c, 1, 61, 107
3, 35856, Note_on_c, 1, 61, 0
3, 35880, Note_on_c, 1, 64, 107
3, 35976, Note_on_c, 1, 64, 0
3, 36000, Note_on_c, 1, 62, 107
3, 36240, Note_on_c, 1, 57, 107
3, 36336, Note_on_c, 1, 57, 0
3, 36360, Note_on_c, 1, 54, 107
3, 36456, Note_on_c, 1, 54, 0
3, 36480, Note_on_c, 1, 55, 107
3, 36576, Note_on_c, 1, 55, 0
3, 36576, Note_on_c, 1, 62, 0
3, 36600, Note_on_c, 1, 57, 107
3, 36696, Note_on_c, 1, 57, 0
3, 36720, Note_on_c, 1, 50, 107
3, 36816, Note_on_c, 1, 50, 0
3, 36840, Note_on_c, 1, 54, 107
3, 36936, Note_on_c, 1, 54, 0
3, 36960, Note_on_c, 1, 50, 107
3, 37056, Note_on_c, 1, 50, 0
3, 37080, Note_on_c, 1, 47, 107
3, 37176, Note_on_c, 1, 47, 0
3, 37200, Note_on_c, 1, 50, 107
3, 37296, Note_on_c, 1, 50, 0
3, 37320, Note_on_c, 1, 47, 107
3, 37416, Note_on_c, 1, 47, 0
3, 37440, Note_on_c, 1, 52, 107
3, 38616, Note_on_c, 1, 52, 0
3, 38640, Note_on_c, 1, 64, 107
3, 38736, Note_on_c, 1, 64, 0
3, 38760, Note_on_c, 1, 62, 107
3, 38856, Note_on_c, 1, 62, 0
3, 38880, Note_on_c, 1, 61, 107
3, 38976, Note_on_c, 1, 61, 0
3, 39000, Note_on_c, 1, 62, 107
3, 39096, Note_on_c, 1, 62, 0
3, 39120, Note_on_c, 1, 59, 107
3, 39216, Note_on_c, 1, 59, 0
3, 39240, Note_on_c, 1, 61, 107
3, 39336, Note_on_c, 1, 61, 0
3, 39360, Note_on_c, 1, 59, 107
3, 39456, Note_on_c, 1, 59, 0
3, 39480, Note_on_c, 1, 57, 107
3, 39576, Note_on_c, 1, 57, 0
3, 39600, Note_on_c, 1, 62, 107
3, 40056, Note_on_c, 1, 62, 0
3, 40080, Note_on_c, 1, 59, 107
3, 40176, Note_on_c, 1, 59, 0
3, 40200, Note_on_c, 1, 62, 107
3, 40296, Note_on_c, 1, 62, 0
3, 40320, Note_on_c, 1, 56, 107
3, 40416, Note_on_c, 1, 56, 0
3, 40440, Note_on_c, 1, 59, 107
3, 40536, Note_on_c, 1, 59, 0
3, 40560, Note_on_c, 1, 52, 107
3, 40656, Note_on_c, 1, 52, 0
3, 40680, Note_on_c, 1, 57, 107
3, 40776, Note_on_c, 1, 57, 0
3, 40800, Note_on_c, 1, 49, 107
3, 40896, Note_on_c, 1, 49, 0
3, 40920, Note_on_c, 1, 52, 107
3, 41016, Note_on_c, 1, 52, 0
3, 41040, Note_on_c, 1, 42, 107
3, 41328, Note_on_c, 1, 42, 0
3, 41400, Note_on_c, 1, 44, 107
3, 41424, Note_on_c, 1, 44, 0
3, 41430, Note_on_c, 1, 45, 107
3, 41454, Note_on_c, 1, 45, 0
3, 41460, Note_on_c, 1, 44, 107
3, 41484, Note_on_c, 1, 44, 0
3, 41490, Note_on_c, 1, 45, 107
3, 41514, Note_on_c, 1, 45, 0
3, 41520, Note_on_c, 1, 44, 107
3, 41544, Note_on_c, 1, 44, 0
3, 41550, Note_on_c, 1, 45, 107
3, 41574, Note_on_c, 1, 45, 0
3, 41580, Note_on_c, 1, 44, 107
3, 41604, Note_on_c, 1, 44, 0
3, 41610, Note_on_c, 1, 45, 107
3, 41634, Note_on_c, 1, 45, 0
3, 41640, Note_on_c, 1, 44, 107
3, 41664, Note_on_c, 1, 44, 0
3, 41670, Note_on_c, 1, 45, 107
3, 41694, Note_on_c, 1, 45, 0
3, 41700, Note_on_c, 1, 44, 107
3, 41748, Note_on_c, 1, 44, 0
3, 41760, Note_on_c, 1, 45, 107
3, 41856, Note_on_c, 1, 45, 0
3, 41880, Note_on_c, 1, 49, 107
3, 41976, Note_on_c, 1, 49, 0
3, 42000, Note_on_c, 1, 52, 107
3, 42096, Note_on_c, 1, 52, 0
3, 42120, Note_on_c, 1, 57, 107
3, 42216, Note_on_c, 1, 57, 0
3, 42240, Note_on_c, 1, 45, 107
3, 42336, Note_on_c, 1, 45, 0
3, 42360, Note_on_c, 1, 49, 107
3, 42456, Note_on_c, 1, 49, 0
3, 42480, Note_on_c, 1, 38, 107
3, 42768, Note_on_c, 1, 38, 0
3, 42840, Note_on_c, 1, 39, 107
3, 42869, Note_on_c, 1, 39, 0
3, 42870, Note_on_c, 1, 40, 107
3, 42899, Note_on_c, 1, 40, 0
3, 42900, Note_on_c, 1, 39, 107
3, 42929, Note_on_c, 1, 39, 0
3, 42930, Note_on_c, 1, 40, 107
3, 42959, Note_on_c, 1, 40, 0
3, 42960, Note_on_c, 1, 39, 107
3, 42989, Note_on_c, 1, 39, 0
3, 42990, Note_on_c, 1, 40, 107
3, 43019, Note_on_c, 1, 40, 0
3, 43020, Note_on_c, 1, 39, 107
3, 43049, Note_on_c, 1, 39, 0
3, 43050, Note_on_c, 1, 40, 107
3, 43079, Note_on_c, 1, 40, 0
3, 43080, Note_on_c, 1, 39, 107
3, 43109, Note_on_c, 1, 39, 0
3, 43110, Note_on_c, 1, 40, 107
3, 43139, Note_on_c, 1, 40, 0
3, 43140, Note_on_c, 1, 39, 107
3, 43188, Note_on_c, 1, 39, 0
3, 43200, Note_on_c, 1, 64, 107
3, 43200, Note_on_c, 1, 40, 107
3, 43296, Note_on_c, 1, 64, 0
3, 43320, Note_on_c, 1, 62, 107
3, 43392, Note_on_c, 1, 40, 0
3, 43416, Note_on_c, 1, 62, 0
3, 43440, Note_on_c, 1, 61, 107
3, 43536, Note_on_c, 1, 61, 0
3, 43560, Note_on_c, 1, 59, 107
3, 43656, Note_on_c, 1, 59, 0
3, 43680, Note_on_c, 1, 61, 107
3, 43776, Note_on_c, 1, 61, 0
3, 43800, Note_on_c, 1, 57, 107
3, 43896, Note_on_c, 1, 57, 0
3, 43920, Note_on_c, 1, 56, 107
3, 44112, Note_on_c, 1, 56, 0
3, 44160, Note_on_c, 1, 57, 107
3, 44256, Note_on_c, 1, 57, 0
3, 44280, Note_on_c, 1, 56, 107
3, 44472, Note_on_c, 1, 56, 0
3, 44520, Note_on_c, 1, 54, 107
3, 44616, Note_on_c, 1, 54, 0
3, 44640, Note_on_c, 1, 52, 107
3, 44832, Note_on_c, 1, 52, 0
3, 44880, Note_on_c, 1, 54, 107
3, 44976, Note_on_c, 1, 54, 0
3, 45000, Note_on_c, 1, 56, 107
3, 45192, Note_on_c, 1, 56, 0
3, 45240, Note_on_c, 1, 57, 107
3, 45336, Note_on_c, 1, 57, 0
3, 45360, Note_on_c, 1, 59, 107
3, 45360, Note_on_c, 1, 52, 107
3, 45456, Note_on_c, 1, 52, 0
3, 45480, Note_on_c, 1, 50, 107
3, 45552, Note_on_c, 1, 59, 0
3, 45576, Note_on_c, 1, 50, 0
3, 45600, Note_on_c, 1, 49, 107
3, 45696, Note_on_c, 1, 49, 0
3, 45720, Note_on_c, 1, 47, 107
3, 45816, Note_on_c, 1, 47, 0
3, 45840, Note_on_c, 1, 49, 107
3, 45936, Note_on_c, 1, 49, 0
3, 45960, Note_on_c, 1, 45, 107
3, 46056, Note_on_c, 1, 45, 0
3, 46080, Note_on_c, 1, 44, 107
3, 46176, Note_on_c, 1, 44, 0
3, 46200, Note_on_c, 1, 42, 107
3, 46296, Note_on_c, 1, 42, 0
3, 46320, Note_on_c, 1, 40, 107
3, 46416, Note_on_c, 1, 40, 0
3, 46440, Note_on_c, 1, 45, 107
3, 46536, Note_on_c, 1, 45, 0
3, 46560, Note_on_c, 1, 47, 107
3, 46656, Note_on_c, 1, 47, 0
3, 46680, Note_on_c, 1, 49, 107
3, 46776, Note_on_c, 1, 49, 0
3, 46800, Note_on_c, 1, 50, 107
3, 46896, Note_on_c, 1, 50, 0
3, 46920, Note_on_c, 1, 49, 107
3, 47016, Note_on_c, 1, 49, 0
3, 47040, Note_on_c, 1, 52, 107
3, 47136, Note_on_c, 1, 52, 0
3, 47160, Note_on_c, 1, 50, 107
3, 47256, Note_on_c, 1, 50, 0
3, 47280, Note_on_c, 1, 52, 107
3, 47376, Note_on_c, 1, 52, 0
3, 47400, Note_on_c, 1, 53, 107
3, 47496, Note_on_c, 1, 53, 0
3, 47520, Note_on_c, 1, 52, 107
3, 48000, Note_on_c, 1, 61, 107
3, 48288, Note_on_c, 1, 61, 0
3, 48360, Note_on_c, 1, 59, 107
3, 48648, Note_on_c, 1, 59, 0
3, 48816, Note_on_c, 1, 52, 0
3, 48960, Note_on_c, 1, 57, 107
3, 48960, Note_on_c, 1, 61, 107
3, 49152, Note_on_c, 1, 61, 0
3, 49200, Note_on_c, 1, 62, 107
3, 49296, Note_on_c, 1, 62, 0
3, 49320, Note_on_c, 1, 61, 107
3, 49512, Note_on_c, 1, 61, 0
3, 49560, Note_on_c, 1, 59, 107
3, 49656, Note_on_c, 1, 59, 0
3, 49680, Note_on_c, 1, 57, 107
3, 50256, Note_on_c, 1, 57, 0
3, 52416, Note_on_c, 1, 57, 0
3, 52560, Note_on_c, 1, 45, 107
3, 53136, Note_on_c, 1, 45, 0
3, 53136, End_track
4, 0, Start_track
4, 0, MIDI_port, 0
4, 0, Title_t, "Arr. Gary Bricault, (c) 1997"
4, 0, End_track
0, 0, End_of_file
