0,0,Header,1,4,240
1,0,Start_track
1,0,Title_t,"Piano Improvisation - NAI"
1,30,Note_on_c,0,67,107
1,30,Note_on_c,0,82,107
1,50,Note_off_c,0,82,0
1,60,Note_on_c,0,81,107
1,80,Note_off_c,0,81,0
1,90,Note_on_c,0,82,107
1,110,Note_off_c,0,82,0
1,120,Note_on_c,0,81,107
1,120,Note_off_c,0,67,0
1,150,Note_on_c,0,66,107
1,240,Note_off_c,0,66,0
1,270,Note_on_c,0,64,107
1,340,Note_off_c,0,81,0
1,390,Note_on_c,0,62,107
1,390,Note_on_c,0,79,107
1,390,Note_off_c,0,64,0
1,430,Note_off_c,0,79,0
1,450,Note_on_c,0,81,107
1,480,Note_off_c,0,62,0
1,510,Note_on_c,0,67,107
1,510,Note_on_c,0,82,107
1,510,Note_off_c,0,81,0
1,630,Note_on_c,0,69,107
1,630,Note_on_c,0,84,107
1,630,Note_off_c,0,67,0
1,640,Note_off_c,0,82,0
1,750,Note_on_c,0,57,107
1,750,Note_on_c,0,72,107
1,750,Note_off_c,0,69,0
1,760,Note_off_c,0,84,0
1,840,Note_off_c,0,57,0
1,870,Note_on_c,0,57,107
1,940,Note_off_c,0,72,0
1,990,Note_on_c,0,62,107
1,990,Note_on_c,0,71,107
1,990,Note_off_c,0,57,0
1,1110,Note_on_c,0,67,107
1,1110,Note_on_c,0,79,107
1,1110,Note_off_c,0,62,0
1,1120,Note_off_c,0,71,0
1,1230,Note_on_c,0,62,107
1,1230,Note_on_c,0,70,107
1,1230,Note_off_c,0,67,0
1,1240,Note_off_c,0,79,0
1,1350,Note_on_c,0,64,107
1,1350,Note_on_c,0,79,107
1,1350,Note_off_c,0,62,0
1,1360,Note_off_c,0,70,0
1,1380,Note_on_c,0,65,107
1,1380,Note_on_c,0,81,107
1,1380,Note_off_c,0,64,0
1,1390,Note_off_c,0,79,0
1,1470,Note_on_c,0,55,107
1,1470,Note_on_c,0,64,107
1,1470,Note_off_c,0,65,0
1,1480,Note_off_c,0,81,0
1,1530,Note_on_c,0,70,107
1,1560,Note_off_c,0,64,0
1,1590,Note_on_c,0,69,107
1,1630,Note_off_c,0,69,0
1,1650,Note_on_c,0,65,107
1,1690,Note_off_c,0,65,0
1,1710,Note_on_c,0,62,107
1,1750,Note_off_c,0,62,0
1,1770,Note_on_c,0,63,107
1,1810,Note_off_c,0,55,0
1,1820,Note_off_c,0,70,0
1,1830,Note_on_c,0,70,107
1,1870,Note_off_c,0,70,0
1,1890,Note_on_c,0,51,107
1,1890,Note_on_c,0,72,107
1,1930,Note_off_c,0,72,0
1,1950,Note_on_c,0,75,107
1,1980,Note_off_c,0,51,0
1,1990,Note_off_c,0,75,0
1,2010,Note_on_c,0,53,107
1,2010,Note_on_c,0,69,107
1,2050,Note_off_c,0,63,0
1,2070,Note_on_c,0,65,107
1,2110,Note_off_c,0,65,0
1,2130,Note_on_c,0,63,107
1,2170,Note_off_c,0,63,0
1,2190,Note_on_c,0,65,107
1,2230,Note_off_c,0,65,0
1,2250,Note_on_c,0,64,107
1,2290,Note_off_c,0,64,0
1,2310,Note_on_c,0,62,107
1,2320,Note_off_c,0,53,0
1,2350,Note_off_c,0,62,0
1,2370,Note_on_c,0,60,107
1,2410,Note_off_c,0,60,0
1,2430,Note_on_c,0,58,107
1,2470,Note_off_c,0,58,0
1,2490,Note_on_c,0,57,107
1,2530,Note_off_c,0,57,0
1,2550,Note_on_c,0,55,107
1,2590,Note_off_c,0,55,0
1,2610,Note_on_c,0,53,107
1,2650,Note_off_c,0,53,0
1,2670,Note_on_c,0,52,107
1,2680,Note_off_c,0,69,0
1,2730,Note_on_c,0,50,107
1,2730,Note_on_c,0,69,107
1,2730,Note_off_c,0,52,0
1,2770,Note_off_c,0,50,0
1,2790,Note_on_c,0,48,107
1,2820,Note_off_c,0,69,0
1,2850,Note_on_c,0,47,107
1,2850,Note_on_c,0,74,107
1,2850,Note_off_c,0,48,0
1,2890,Note_off_c,0,74,0
1,2910,Note_on_c,0,76,107
1,2950,Note_off_c,0,76,0
1,2970,Note_on_c,0,74,107
1,3010,Note_off_c,0,74,0
1,3030,Note_on_c,0,76,107
1,3070,Note_off_c,0,76,0
1,3090,Note_on_c,0,77,107
1,3130,Note_off_c,0,47,0
1,3210,Note_on_c,0,67,107
1,3210,Note_off_c,0,77,0
1,3270,Note_on_c,0,52,107
1,3310,Note_off_c,0,52,0
1,3330,Note_on_c,0,53,107
1,3370,Note_off_c,0,53,0
1,3390,Note_on_c,0,55,107
1,3430,Note_off_c,0,55,0
1,3450,Note_on_c,0,57,107
1,3510,Note_on_c,0,59,107
1,3510,Note_off_c,0,67,0
1,3520,Note_off_c,0,57,0
1,3570,Note_on_c,0,61,107
1,3570,Note_off_c,0,59,0
1,3630,Note_on_c,0,62,107
1,3630,Note_off_c,0,61,0
1,3690,Note_on_c,0,64,107
1,3690,Note_off_c,0,62,0
1,3750,Note_on_c,0,65,107
1,3750,Note_off_c,0,64,0
1,3810,Note_on_c,0,52,107
1,3810,Note_on_c,0,67,107
1,3810,Note_off_c,0,65,0
1,3850,Note_off_c,0,67,0
1,3870,Note_on_c,0,69,107
1,3900,Note_off_c,0,52,0
1,3930,Note_on_c,0,57,107
1,3930,Note_on_c,0,61,107
1,3930,Note_on_c,0,67,107
1,3930,Note_on_c,0,70,107
1,3930,Note_off_c,0,69,0
1,4020,Note_off_c,0,67,0
1,4030,Note_off_c,0,70,0
1,4050,Note_on_c,0,65,107
1,4050,Note_on_c,0,69,107
1,4120,Note_off_c,0,57,0
1,4140,Note_off_c,0,65,0
1,4150,Note_off_c,0,69,0
1,4170,Note_on_c,0,45,107
1,4170,Note_on_c,0,64,107
1,4170,Note_on_c,0,67,107
1,4260,Note_off_c,0,45,0
1,4260,Note_off_c,0,67,0
1,4270,Note_off_c,0,64,0
1,4290,Note_on_c,0,50,107
1,4290,Note_on_c,0,69,107
1,4290,Note_off_c,0,61,0
1,4330,Note_off_c,0,69,0
1,4350,Note_on_c,0,62,107
1,4380,Note_off_c,0,50,0
1,4410,Note_on_c,0,53,107
1,4410,Note_on_c,0,61,107
1,4410,Note_off_c,0,62,0
1,4450,Note_off_c,0,61,0
1,4470,Note_on_c,0,57,107
1,4510,Note_off_c,0,53,0
1,4530,Note_on_c,0,49,107
1,4530,Note_on_c,0,65,107
1,4570,Note_off_c,0,65,0
1,4590,Note_on_c,0,69,107
1,4620,Note_off_c,0,57,0
1,4630,Note_off_c,0,49,0
1,4650,Note_on_c,0,52,107
1,4650,Note_on_c,0,60,107
1,4690,Note_off_c,0,60,0
1,4710,Note_on_c,0,62,107
1,4750,Note_off_c,0,62,0
1,4770,Note_on_c,0,60,107
1,4810,Note_off_c,0,60,0
1,4830,Note_on_c,0,62,107
1,4870,Note_off_c,0,62,0
1,4890,Note_on_c,0,60,107
1,4980,Note_on_c,0,71,107
1,4980,Note_off_c,0,69,0
1,4990,Note_off_c,0,60,0
1,5000,Note_on_c,0,69,107
1,5000,Note_off_c,0,71,0
1,5010,Note_on_c,0,59,107
1,5030,Note_off_c,0,69,0
1,5050,Note_off_c,0,59,0
1,5070,Note_on_c,0,69,107
1,5110,Note_off_c,0,69,0
1,5130,Note_on_c,0,54,107
1,5130,Note_on_c,0,70,107
1,5170,Note_on_c,0,58,107
1,5170,Note_off_c,0,52,0
1,5170,Note_off_c,0,70,0
1,5190,Note_on_c,0,69,107
1,5320,Note_off_c,0,54,0
1,5330,Note_on_c,0,54,107
1,5330,Note_off_c,0,58,0
1,5340,Note_off_c,0,69,0
1,5370,Note_on_c,0,59,107
1,5370,Note_on_c,0,68,107
1,5410,Note_off_c,0,54,0
1,5410,Note_off_c,0,68,0
1,5430,Note_on_c,0,66,107
1,5460,Note_off_c,0,59,0
1,5490,Note_on_c,0,59,107
1,5490,Note_on_c,0,62,107
1,5490,Note_off_c,0,66,0
1,5530,Note_off_c,0,59,0
1,5550,Note_on_c,0,49,107
1,5580,Note_off_c,0,62,0
1,5610,Note_on_c,0,50,107
1,5610,Note_on_c,0,57,107
1,5610,Note_on_c,0,74,107
1,5610,Note_off_c,0,49,0
1,5650,Note_off_c,0,74,0
1,5670,Note_on_c,0,74,107
1,5700,Note_off_c,0,50,0
1,5730,Note_on_c,0,55,107
1,5730,Note_off_c,0,74,0
1,5770,Note_off_c,0,57,0
1,5790,Note_on_c,0,59,107
1,5820,Note_off_c,0,55,0
1,5850,Note_on_c,0,60,107
1,5850,Note_on_c,0,67,107
1,5850,Note_off_c,0,59,0
1,5890,Note_off_c,0,67,0
1,5910,Note_on_c,0,66,107
1,5940,Note_off_c,0,60,0
1,5970,Note_on_c,0,59,107
1,5970,Note_on_c,0,71,107
1,5970,Note_off_c,0,66,0
1,6010,Note_off_c,0,71,0
1,6030,Note_on_c,0,69,107
1,6060,Note_off_c,0,59,0
1,6090,Note_on_c,0,55,107
1,6090,Note_on_c,0,71,107
1,6090,Note_off_c,0,69,0
1,6130,Note_off_c,0,71,0
1,6150,Note_on_c,0,74,107
1,6180,Note_off_c,0,55,0
1,6210,Note_on_c,0,53,107
1,6210,Note_on_c,0,62,107
1,6210,Note_off_c,0,74,0
1,6250,Note_off_c,0,62,0
1,6270,Note_on_c,0,65,107
1,6300,Note_off_c,0,53,0
1,6330,Note_on_c,0,57,107
1,6330,Note_on_c,0,64,107
1,6330,Note_off_c,0,65,0
1,6370,Note_off_c,0,64,0
1,6390,Note_on_c,0,62,107
1,6420,Note_off_c,0,57,0
1,6450,Note_on_c,0,50,107
1,6450,Note_on_c,0,64,107
1,6450,Note_off_c,0,62,0
1,6490,Note_off_c,0,64,0
1,6510,Note_on_c,0,65,107
1,6540,Note_off_c,0,50,0
1,6570,Note_on_c,0,55,107
1,6570,Note_on_c,0,71,107
1,6570,Note_off_c,0,65,0
1,6630,Note_on_c,0,53,107
1,6630,Note_on_c,0,72,107
1,6630,Note_off_c,0,55,0
1,6640,Note_off_c,0,71,0
1,6690,Note_on_c,0,50,107
1,6690,Note_on_c,0,74,107
1,6690,Note_off_c,0,53,0
1,6700,Note_off_c,0,72,0
1,6730,Note_off_c,0,50,0
1,6750,Note_on_c,0,55,107
1,6780,Note_off_c,0,74,0
1,6810,Note_on_c,0,74,107
1,6850,Note_off_c,0,55,0
1,6870,Note_on_c,0,57,107
1,6900,Note_off_c,0,74,0
1,6930,Note_on_c,0,55,107
1,6930,Note_on_c,0,74,107
1,6930,Note_off_c,0,57,0
1,6970,Note_off_c,0,55,0
1,6990,Note_on_c,0,58,107
1,7020,Note_off_c,0,74,0
1,7050,Note_on_c,0,54,107
1,7050,Note_on_c,0,76,107
1,7050,Note_off_c,0,58,0
1,7090,Note_off_c,0,54,0
1,7110,Note_on_c,0,55,107
1,7140,Note_off_c,0,76,0
1,7170,Note_on_c,0,57,107
1,7170,Note_on_c,0,84,107
1,7170,Note_off_c,0,55,0
1,7260,Note_off_c,0,57,0
1,7290,Note_on_c,0,50,107
1,7380,Note_off_c,0,50,0
1,7410,Note_on_c,0,48,107
1,7480,Note_off_c,0,84,0
1,7530,Note_on_c,0,50,107
1,7530,Note_on_c,0,65,107
1,7530,Note_off_c,0,48,0
1,7650,Note_on_c,0,45,107
1,7650,Note_on_c,0,62,107
1,7650,Note_off_c,0,50,0
1,7660,Note_off_c,0,65,0
1,7770,Note_on_c,0,44,107
1,7770,Note_on_c,0,64,107
1,7770,Note_off_c,0,45,0
1,7780,Note_off_c,0,62,0
1,7890,Note_on_c,0,45,107
1,7890,Note_on_c,0,66,107
1,7890,Note_off_c,0,44,0
1,7900,Note_off_c,0,64,0
1,8010,Note_on_c,0,50,107
1,8010,Note_on_c,0,64,107
1,8010,Note_off_c,0,45,0
1,8020,Note_off_c,0,66,0
1,8040,Note_off_c,0,50,0
1,8130,Note_on_c,0,52,107
1,8130,Note_on_c,0,67,107
1,8130,Note_off_c,0,64,0
1,8250,Note_on_c,0,54,107
1,8250,Note_on_c,0,69,107
1,8250,Note_off_c,0,52,0
1,8260,Note_off_c,0,67,0
1,8370,Note_on_c,0,55,107
1,8370,Note_on_c,0,71,107
1,8370,Note_off_c,0,54,0
1,8380,Note_off_c,0,69,0
1,8490,Note_on_c,0,57,107
1,8490,Note_on_c,0,72,107
1,8490,Note_off_c,0,55,0
1,8500,Note_off_c,0,71,0
1,8610,Note_on_c,0,50,107
1,8610,Note_on_c,0,66,107
1,8610,Note_off_c,0,57,0
1,8620,Note_off_c,0,72,0
1,8730,Note_on_c,0,52,107
1,8730,Note_on_c,0,74,107
1,8730,Note_off_c,0,50,0
1,8740,Note_off_c,0,66,0
1,8850,Note_on_c,0,54,107
1,8850,Note_on_c,0,72,107
1,8850,Note_off_c,0,52,0
1,8860,Note_off_c,0,74,0
1,8970,Note_on_c,0,55,107
1,8970,Note_on_c,0,71,107
1,8970,Note_off_c,0,54,0
1,8980,Note_off_c,0,72,0
1,9090,Note_on_c,0,57,107
1,9090,Note_on_c,0,72,107
1,9090,Note_off_c,0,55,0
1,9100,Note_off_c,0,71,0
1,9210,Note_on_c,0,59,107
1,9210,Note_on_c,0,74,107
1,9210,Note_off_c,0,57,0
1,9220,Note_off_c,0,72,0
1,9330,Note_on_c,0,52,107
1,9330,Note_on_c,0,67,107
1,9330,Note_off_c,0,59,0
1,9340,Note_off_c,0,74,0
1,9450,Note_on_c,0,54,107
1,9450,Note_on_c,0,76,107
1,9450,Note_off_c,0,52,0
1,9460,Note_off_c,0,67,0
1,9570,Note_on_c,0,55,107
1,9570,Note_on_c,0,74,107
1,9570,Note_off_c,0,54,0
1,9580,Note_off_c,0,76,0
1,9690,Note_on_c,0,57,107
1,9690,Note_on_c,0,72,107
1,9690,Note_off_c,0,55,0
1,9700,Note_off_c,0,74,0
1,9780,Note_off_c,0,72,0
1,9810,Note_on_c,0,74,107
1,9880,Note_off_c,0,57,0
1,9930,Note_on_c,0,45,107
1,9930,Note_on_c,0,73,107
1,9930,Note_off_c,0,74,0
1,10050,Note_on_c,0,50,107
1,10050,Note_on_c,0,74,107
1,10050,Note_off_c,0,45,0
1,10060,Note_off_c,0,73,0
1,10140,Note_off_c,0,50,0
1,10170,Note_on_c,0,45,107
1,10260,Note_off_c,0,45,0
1,10290,Note_on_c,0,50,107
1,10380,Note_off_c,0,50,0
1,10410,Note_on_c,0,53,107
1,10500,Note_off_c,0,53,0
1,10530,Note_on_c,0,50,107
1,10600,Note_off_c,0,74,0
1,10650,Note_on_c,0,53,107
1,10650,Note_on_c,0,74,107
1,10650,Note_off_c,0,50,0
1,10770,Note_on_c,0,57,107
1,10770,Note_on_c,0,72,107
1,10770,Note_off_c,0,53,0
1,10780,Note_off_c,0,74,0
1,10860,Note_off_c,0,72,0
1,10890,Note_on_c,0,77,107
1,10980,Note_off_c,0,77,0
1,11010,Note_on_c,0,72,107
1,11050,Note_off_c,0,57,0
1,11130,Note_on_c,0,69,107
1,11130,Note_off_c,0,72,0
1,11250,Note_on_c,0,72,107
1,11250,Note_off_c,0,69,0
1,11370,Note_on_c,0,60,107
1,11370,Note_on_c,0,69,107
1,11370,Note_off_c,0,72,0
1,11490,Note_on_c,0,58,107
1,11490,Note_on_c,0,67,107
1,11490,Note_off_c,0,60,0
1,11500,Note_off_c,0,69,0
1,11610,Note_on_c,0,60,107
1,11610,Note_on_c,0,69,107
1,11610,Note_off_c,0,58,0
1,11620,Note_off_c,0,67,0
1,11730,Note_on_c,0,62,107
1,11730,Note_on_c,0,70,107
1,11730,Note_off_c,0,60,0
1,11740,Note_off_c,0,69,0
1,11820,Note_off_c,0,70,0
1,11850,Note_on_c,0,72,107
1,11910,Note_off_c,0,62,0
1,11970,Note_on_c,0,58,107
1,11970,Note_on_c,0,65,107
1,11970,Note_off_c,0,72,0
1,12060,Note_off_c,0,65,0
1,12090,Note_on_c,0,68,107
1,12150,Note_off_c,0,58,0
1,12210,Note_on_c,0,63,107
1,12210,Note_on_c,0,67,107
1,12210,Note_off_c,0,68,0
1,12300,Note_off_c,0,63,0
1,12330,Note_on_c,0,65,107
1,12390,Note_off_c,0,67,0
1,12450,Note_on_c,0,63,107
1,12450,Note_on_c,0,79,107
1,12450,Note_off_c,0,65,0
1,12540,Note_off_c,0,63,0
1,12570,Note_on_c,0,62,107
1,12660,Note_off_c,0,62,0
1,12690,Note_on_c,0,60,107
1,12780,Note_off_c,0,79,0
1,12810,Note_on_c,0,77,107
1,12870,Note_off_c,0,60,0
1,12930,Note_on_c,0,62,107
1,12930,Note_on_c,0,75,107
1,12930,Note_off_c,0,77,0
1,13020,Note_off_c,0,75,0
1,13050,Note_on_c,0,81,107
1,13140,Note_off_c,0,81,0
1,13170,Note_on_c,0,74,107
1,13290,Note_on_c,0,72,107
1,13290,Note_on_c,0,76,107
1,13290,Note_off_c,0,62,0
1,13300,Note_off_c,0,74,0
1,13380,Note_off_c,0,76,0
1,13410,Note_on_c,0,79,107
1,13500,Note_off_c,0,79,0
1,13530,Note_on_c,0,81,107
1,13650,Note_on_c,0,71,107
1,13650,Note_on_c,0,83,107
1,13650,Note_off_c,0,72,0
1,13660,Note_off_c,0,81,0
1,13770,Note_on_c,0,69,107
1,13770,Note_on_c,0,84,107
1,13770,Note_off_c,0,71,0
1,13780,Note_off_c,0,83,0
1,13890,Note_on_c,0,67,107
1,13890,Note_on_c,0,74,107
1,13890,Note_off_c,0,69,0
1,13900,Note_off_c,0,84,0
1,14010,Note_on_c,0,69,107
1,14010,Note_on_c,0,84,107
1,14010,Note_off_c,0,67,0
1,14020,Note_off_c,0,74,0
1,14130,Note_on_c,0,57,107
1,14130,Note_on_c,0,72,107
1,14130,Note_off_c,0,69,0
1,14140,Note_off_c,0,84,0
1,14250,Note_on_c,0,59,107
1,14250,Note_on_c,0,79,107
1,14250,Note_off_c,0,57,0
1,14260,Note_off_c,0,72,0
1,14340,Note_off_c,0,59,0
1,14370,Note_on_c,0,60,107
1,14440,Note_off_c,0,79,0
1,14490,Note_on_c,0,64,107
1,14490,Note_on_c,0,80,107
1,14490,Note_off_c,0,60,0
1,14580,Note_off_c,0,80,0
1,14610,Note_on_c,0,81,107
1,14680,Note_off_c,0,64,0
1,14730,Note_on_c,0,62,107
1,14730,Note_on_c,0,83,107
1,14730,Note_off_c,0,81,0
1,14820,Note_off_c,0,83,0
1,14850,Note_on_c,0,76,107
1,14920,Note_off_c,0,62,0
1,14970,Note_on_c,0,60,107
1,14970,Note_on_c,0,81,107
1,14970,Note_off_c,0,76,0
1,15090,Note_on_c,0,59,107
1,15090,Note_on_c,0,83,107
1,15090,Note_off_c,0,60,0
1,15100,Note_off_c,0,81,0
1,15210,Note_on_c,0,57,107
1,15210,Note_on_c,0,84,107
1,15210,Note_off_c,0,59,0
1,15220,Note_off_c,0,83,0
1,15330,Note_on_c,0,59,107
1,15330,Note_on_c,0,80,107
1,15330,Note_off_c,0,57,0
1,15340,Note_off_c,0,84,0
1,15450,Note_on_c,0,60,107
1,15450,Note_on_c,0,81,107
1,15450,Note_off_c,0,59,0
1,15460,Note_off_c,0,80,0
1,15570,Note_on_c,0,57,107
1,15570,Note_on_c,0,76,107
1,15570,Note_off_c,0,60,0
1,15580,Note_off_c,0,81,0
1,15690,Note_on_c,0,62,107
1,15690,Note_on_c,0,78,107
1,15690,Note_off_c,0,57,0
1,15700,Note_off_c,0,76,0
1,15810,Note_on_c,0,59,107
1,15810,Note_on_c,0,74,107
1,15810,Note_off_c,0,62,0
1,15820,Note_off_c,0,78,0
1,15930,Note_on_c,0,60,107
1,15930,Note_on_c,0,76,107
1,15930,Note_off_c,0,59,0
1,15940,Note_off_c,0,74,0
1,16020,Note_off_c,0,60,0
1,16050,Note_on_c,0,56,107
1,16140,Note_off_c,0,56,0
1,16170,Note_on_c,0,57,107
1,16210,Note_off_c,0,76,0
1,16290,Note_on_c,0,50,107
1,16290,Note_on_c,0,77,107
1,16290,Note_off_c,0,57,0
1,16410,Note_on_c,0,52,107
1,16410,Note_on_c,0,71,107
1,16410,Note_off_c,0,50,0
1,16420,Note_off_c,0,77,0
1,16430,Note_off_c,0,71,0
1,16440,Note_on_c,0,72,107
1,16460,Note_off_c,0,72,0
1,16470,Note_on_c,0,70,107
1,16490,Note_off_c,0,70,0
1,16500,Note_on_c,0,71,107
1,16500,Note_off_c,0,52,0
1,16530,Note_on_c,0,51,107
1,16530,Note_on_c,0,72,107
1,16530,Note_off_c,0,71,0
1,16550,Note_off_c,0,72,0
1,16560,Note_on_c,0,71,107
1,16580,Note_off_c,0,71,0
1,16590,Note_on_c,0,69,107
1,16610,Note_off_c,0,69,0
1,16620,Note_on_c,0,71,107
1,16620,Note_off_c,0,51,0
1,16650,Note_on_c,0,56,107
1,16650,Note_on_c,0,69,107
1,16650,Note_off_c,0,71,0
1,16770,Note_on_c,0,57,107
1,16770,Note_on_c,0,72,107
1,16770,Note_off_c,0,56,0
1,16780,Note_off_c,0,69,0
1,16860,Note_off_c,0,57,0
1,16890,Note_on_c,0,52,107
1,16960,Note_off_c,0,72,0
1,17010,Note_on_c,0,57,107
1,17010,Note_on_c,0,71,107
1,17010,Note_off_c,0,52,0
1,17130,Note_on_c,0,52,107
1,17130,Note_on_c,0,72,107
1,17130,Note_off_c,0,57,0
1,17140,Note_off_c,0,71,0
1,17250,Note_on_c,0,59,107
1,17250,Note_on_c,0,74,107
1,17250,Note_off_c,0,52,0
1,17260,Note_off_c,0,72,0
1,17340,Note_off_c,0,59,0
1,17370,Note_on_c,0,52,107
1,17440,Note_off_c,0,74,0
1,17490,Note_on_c,0,59,107
1,17490,Note_on_c,0,72,107
1,17490,Note_off_c,0,52,0
1,17610,Note_on_c,0,52,107
1,17610,Note_on_c,0,74,107
1,17610,Note_off_c,0,59,0
1,17620,Note_off_c,0,72,0
1,17730,Note_on_c,0,60,107
1,17730,Note_on_c,0,76,107
1,17730,Note_off_c,0,52,0
1,17740,Note_off_c,0,74,0
1,17850,Note_on_c,0,52,107
1,17850,Note_on_c,0,74,107
1,17850,Note_off_c,0,60,0
1,17860,Note_off_c,0,76,0
1,17970,Note_on_c,0,57,107
1,17970,Note_on_c,0,72,107
1,17970,Note_off_c,0,52,0
1,17980,Note_off_c,0,74,0
1,18090,Note_on_c,0,52,107
1,18090,Note_on_c,0,76,107
1,18090,Note_off_c,0,57,0
1,18100,Note_off_c,0,72,0
1,18210,Note_on_c,0,59,107
1,18210,Note_on_c,0,74,107
1,18210,Note_off_c,0,52,0
1,18220,Note_off_c,0,76,0
1,18330,Note_on_c,0,60,107
1,18330,Note_on_c,0,76,107
1,18330,Note_off_c,0,59,0
1,18340,Note_off_c,0,74,0
1,18450,Note_on_c,0,52,107
1,18450,Note_on_c,0,74,107
1,18450,Note_off_c,0,60,0
1,18460,Note_off_c,0,76,0
1,18570,Note_on_c,0,57,107
1,18570,Note_on_c,0,72,107
1,18570,Note_off_c,0,52,0
1,18580,Note_off_c,0,74,0
1,18690,Note_on_c,0,56,107
1,18690,Note_on_c,0,74,107
1,18690,Note_off_c,0,57,0
1,18700,Note_off_c,0,72,0
1,18780,Note_off_c,0,56,0
1,18810,Note_on_c,0,59,107
1,18880,Note_off_c,0,74,0
1,18930,Note_on_c,0,57,107
1,18930,Note_on_c,0,72,107
1,18930,Note_off_c,0,59,0
1,19020,Note_off_c,0,72,0
1,19050,Note_on_c,0,74,107
1,19110,Note_off_c,0,57,0
1,19170,Note_on_c,0,60,107
1,19170,Note_on_c,0,76,107
1,19170,Note_off_c,0,74,0
1,19290,Note_on_c,0,57,107
1,19290,Note_on_c,0,72,107
1,19290,Note_off_c,0,60,0
1,19300,Note_off_c,0,76,0
1,19410,Note_on_c,0,59,107
1,19410,Note_on_c,0,74,107
1,19410,Note_off_c,0,57,0
1,19420,Note_off_c,0,72,0
1,19530,Note_on_c,0,60,107
1,19530,Note_on_c,0,76,107
1,19530,Note_off_c,0,59,0
1,19540,Note_off_c,0,74,0
1,19650,Note_on_c,0,62,107
1,19650,Note_on_c,0,77,107
1,19650,Note_off_c,0,60,0
1,19660,Note_off_c,0,76,0
1,19770,Note_on_c,0,64,107
1,19770,Note_on_c,0,79,107
1,19770,Note_off_c,0,62,0
1,19780,Note_off_c,0,77,0
1,19890,Note_on_c,0,65,107
1,19890,Note_on_c,0,81,107
1,19890,Note_off_c,0,64,0
1,19900,Note_off_c,0,79,0
1,20010,Note_on_c,0,59,107
1,20010,Note_on_c,0,74,107
1,20010,Note_off_c,0,65,0
1,20020,Note_off_c,0,81,0
1,20130,Note_on_c,0,60,107
1,20130,Note_on_c,0,72,107
1,20130,Note_off_c,0,59,0
1,20140,Note_off_c,0,74,0
1,20250,Note_on_c,0,59,107
1,20250,Note_on_c,0,74,107
1,20250,Note_off_c,0,60,0
1,20260,Note_off_c,0,72,0
1,20370,Note_on_c,0,60,107
1,20370,Note_on_c,0,76,107
1,20370,Note_off_c,0,59,0
1,20380,Note_off_c,0,74,0
1,20490,Note_on_c,0,62,107
1,20490,Note_on_c,0,77,107
1,20490,Note_off_c,0,60,0
1,20500,Note_off_c,0,76,0
1,20610,Note_on_c,0,64,107
1,20610,Note_on_c,0,79,107
1,20610,Note_off_c,0,62,0
1,20620,Note_off_c,0,77,0
1,20730,Note_on_c,0,65,107
1,20730,Note_on_c,0,81,107
1,20730,Note_off_c,0,64,0
1,20740,Note_off_c,0,79,0
1,20850,Note_on_c,0,59,107
1,20850,Note_on_c,0,74,107
1,20850,Note_off_c,0,65,0
1,20860,Note_off_c,0,81,0
1,20970,Note_on_c,0,60,107
1,20970,Note_on_c,0,72,107
1,20970,Note_off_c,0,59,0
1,20980,Note_off_c,0,74,0
1,21090,Note_on_c,0,62,107
1,21090,Note_on_c,0,77,107
1,21090,Note_off_c,0,60,0
1,21100,Note_off_c,0,72,0
1,21210,Note_on_c,0,52,107
1,21210,Note_on_c,0,79,107
1,21210,Note_off_c,0,62,0
1,21220,Note_off_c,0,77,0
1,21330,Note_on_c,0,62,107
1,21330,Note_on_c,0,77,107
1,21330,Note_off_c,0,52,0
1,21340,Note_off_c,0,79,0
1,21450,Note_on_c,0,61,107
1,21450,Note_on_c,0,76,107
1,21450,Note_off_c,0,62,0
1,21460,Note_off_c,0,77,0
1,21570,Note_on_c,0,62,107
1,21570,Note_on_c,0,77,107
1,21570,Note_off_c,0,61,0
1,21580,Note_off_c,0,76,0
1,21660,Note_off_c,0,77,0
1,21690,Note_on_c,0,79,107
1,21780,Note_off_c,0,79,0
1,21810,Note_on_c,0,81,107
1,21900,Note_off_c,0,81,0
1,21930,Note_on_c,0,74,107
1,22020,Note_off_c,0,62,0
1,22050,Note_on_c,0,64,107
1,22140,Note_off_c,0,64,0
1,22170,Note_on_c,0,65,107
1,22260,Note_off_c,0,65,0
1,22290,Note_on_c,0,64,107
1,22380,Note_off_c,0,74,0
1,22410,Note_on_c,0,72,107
1,22500,Note_off_c,0,72,0
1,22530,Note_on_c,0,70,107
1,22620,Note_off_c,0,70,0
1,22650,Note_on_c,0,72,107
1,22740,Note_off_c,0,64,0
1,22770,Note_on_c,0,66,107
1,22860,Note_off_c,0,66,0
1,22890,Note_on_c,0,67,107
1,22980,Note_off_c,0,67,0
1,23010,Note_on_c,0,69,107
1,23100,Note_off_c,0,69,0
1,23130,Note_on_c,0,67,107
1,23200,Note_off_c,0,72,0
1,23250,Note_on_c,0,66,107
1,23250,Note_on_c,0,74,107
1,23250,Note_off_c,0,67,0
1,23370,Note_on_c,0,67,107
1,23370,Note_on_c,0,70,107
1,23370,Note_off_c,0,66,0
1,23380,Note_off_c,0,74,0
1,23460,Note_off_c,0,67,0
1,23490,Note_on_c,0,66,107
1,23560,Note_off_c,0,70,0
1,23610,Note_on_c,0,64,107
1,23610,Note_on_c,0,72,107
1,23610,Note_off_c,0,66,0
1,23700,Note_off_c,0,64,0
1,23730,Note_on_c,0,66,107
1,23820,Note_off_c,0,66,0
1,23850,Note_on_c,0,67,107
1,23940,Note_off_c,0,67,0
1,23970,Note_on_c,0,69,107
1,24060,Note_off_c,0,69,0
1,24090,Note_on_c,0,67,107
1,24160,Note_off_c,0,72,0
1,24210,Note_on_c,0,66,107
1,24210,Note_on_c,0,74,107
1,24210,Note_off_c,0,67,0
1,24330,Note_on_c,0,67,107
1,24330,Note_on_c,0,70,107
1,24330,Note_off_c,0,66,0
1,24340,Note_off_c,0,74,0
1,24420,Note_off_c,0,67,0
1,24450,Note_on_c,0,66,107
1,24520,Note_off_c,0,70,0
1,24570,Note_on_c,0,64,107
1,24570,Note_on_c,0,72,107
1,24570,Note_off_c,0,66,0
1,24660,Note_off_c,0,64,0
1,24690,Note_on_c,0,66,107
1,24780,Note_off_c,0,66,0
1,24810,Note_on_c,0,67,107
1,24900,Note_off_c,0,67,0
1,24930,Note_on_c,0,69,107
1,25020,Note_off_c,0,69,0
1,25050,Note_on_c,0,67,107
1,25120,Note_off_c,0,72,0
1,25170,Note_on_c,0,66,107
1,25170,Note_on_c,0,74,107
1,25170,Note_off_c,0,67,0
1,25290,Note_on_c,0,67,107
1,25290,Note_on_c,0,70,107
1,25290,Note_off_c,0,66,0
1,25300,Note_off_c,0,74,0
1,25380,Note_off_c,0,67,0
1,25410,Note_on_c,0,66,107
1,25480,Note_off_c,0,70,0
1,25530,Note_on_c,0,64,107
1,25530,Note_on_c,0,72,107
1,25530,Note_off_c,0,66,0
1,25620,Note_off_c,0,64,0
1,25650,Note_on_c,0,67,107
1,25720,Note_off_c,0,72,0
1,25770,Note_on_c,0,69,107
1,25770,Note_on_c,0,74,107
1,25770,Note_off_c,0,67,0
1,25790,Note_off_c,0,74,0
1,25800,Note_on_c,0,73,107
1,25810,Note_on_c,0,70,107
1,25810,Note_off_c,0,69,0
1,25820,Note_off_c,0,73,0
1,25980,Note_on_c,0,66,107
1,25980,Note_off_c,0,70,0
1,26100,Note_on_c,0,64,107
1,26100,Note_off_c,0,66,0
1,26220,Note_on_c,0,61,107
1,26220,Note_off_c,0,64,0
1,26340,Note_on_c,0,64,107
1,26340,Note_off_c,0,61,0
1,26460,Note_on_c,0,61,107
1,26460,Note_off_c,0,64,0
1,26580,Note_on_c,0,62,107
1,26580,Note_off_c,0,61,0
1,26640,Note_on_c,0,50,107
1,26680,Note_off_c,0,50,0
1,26700,Note_on_c,0,52,107
1,26740,Note_off_c,0,52,0
1,26760,Note_on_c,0,54,107
1,26800,Note_off_c,0,54,0
1,26820,Note_on_c,0,56,107
1,26860,Note_off_c,0,56,0
1,26880,Note_on_c,0,57,107
1,26910,Note_off_c,0,62,0
1,26940,Note_on_c,0,59,107
1,26940,Note_off_c,0,57,0
1,27000,Note_on_c,0,60,107
1,27000,Note_off_c,0,59,0
1,27060,Note_on_c,0,59,107
1,27060,Note_off_c,0,60,0
1,27120,Note_on_c,0,60,107
1,27120,Note_off_c,0,59,0
1,27180,Note_on_c,0,57,107
1,27180,Note_off_c,0,60,0
1,27240,Note_on_c,0,62,107
1,27240,Note_off_c,0,57,0
1,27300,Note_on_c,0,68,107
1,27300,Note_off_c,0,62,0
1,27360,Note_on_c,0,57,107
1,27360,Note_off_c,0,68,0
1,27420,Note_on_c,0,62,107
1,27420,Note_off_c,0,57,0
1,27480,Note_on_c,0,64,107
1,27480,Note_off_c,0,62,0
1,27540,Note_on_c,0,59,107
1,27540,Note_off_c,0,64,0
1,27600,Note_on_c,0,57,107
1,27600,Note_off_c,0,59,0
1,27660,Note_on_c,0,56,107
1,27660,Note_off_c,0,57,0
1,27720,Note_on_c,0,57,107
1,27720,Note_off_c,0,56,0
1,27780,Note_on_c,0,59,107
1,27780,Note_off_c,0,57,0
1,27840,Note_on_c,0,62,107
1,27840,Note_off_c,0,59,0
1,27900,Note_on_c,0,64,107
1,27900,Note_off_c,0,62,0
1,27960,Note_on_c,0,62,107
1,27960,Note_off_c,0,64,0
1,28020,Note_on_c,0,57,107
1,28020,Note_off_c,0,62,0
1,28080,Note_on_c,0,62,107
1,28080,Note_on_c,0,71,107
1,28080,Note_off_c,0,57,0
1,28140,Note_on_c,0,61,107
1,28140,Note_on_c,0,69,107
1,28140,Note_off_c,0,62,0
1,28150,Note_off_c,0,71,0
1,28200,Note_on_c,0,57,107
1,28200,Note_on_c,0,71,107
1,28200,Note_off_c,0,61,0
1,28210,Note_off_c,0,69,0
1,28260,Note_on_c,0,59,107
1,28260,Note_on_c,0,67,107
1,28260,Note_off_c,0,57,0
1,28270,Note_off_c,0,71,0
1,28320,Note_on_c,0,55,107
1,28320,Note_on_c,0,64,107
1,28320,Note_off_c,0,59,0
1,28330,Note_off_c,0,67,0
1,28380,Note_on_c,0,57,107
1,28380,Note_on_c,0,66,107
1,28380,Note_off_c,0,55,0
1,28390,Note_off_c,0,64,0
1,28440,Note_on_c,0,54,107
1,28440,Note_on_c,0,63,107
1,28440,Note_off_c,0,57,0
1,28450,Note_off_c,0,66,0
1,28500,Note_on_c,0,55,107
1,28500,Note_on_c,0,64,107
1,28500,Note_off_c,0,54,0
1,28510,Note_off_c,0,63,0
1,28560,Note_on_c,0,52,107
1,28560,Note_on_c,0,61,107
1,28560,Note_off_c,0,55,0
1,28570,Note_off_c,0,64,0
1,28620,Note_on_c,0,54,107
1,28620,Note_on_c,0,63,107
1,28620,Note_off_c,0,52,0
1,28630,Note_off_c,0,61,0
1,28680,Note_on_c,0,52,107
1,28680,Note_on_c,0,72,107
1,28680,Note_off_c,0,54,0
1,28690,Note_off_c,0,63,0
1,28740,Note_on_c,0,54,107
1,28740,Note_on_c,0,71,107
1,28740,Note_off_c,0,52,0
1,28750,Note_off_c,0,72,0
1,28800,Note_on_c,0,51,107
1,28800,Note_on_c,0,69,107
1,28800,Note_off_c,0,54,0
1,28810,Note_off_c,0,71,0
1,28840,Note_off_c,0,69,0
1,28860,Note_on_c,0,66,107
1,28890,Note_off_c,0,51,0
1,28920,Note_on_c,0,54,107
1,28920,Note_on_c,0,63,107
1,28920,Note_off_c,0,66,0
1,28960,Note_off_c,0,63,0
1,28980,Note_on_c,0,66,107
1,29010,Note_off_c,0,54,0
1,29040,Note_on_c,0,51,107
1,29040,Note_on_c,0,59,107
1,29040,Note_off_c,0,66,0
1,29080,Note_off_c,0,59,0
1,29100,Note_on_c,0,69,107
1,29130,Note_off_c,0,51,0
1,29160,Note_on_c,0,47,107
1,29160,Note_on_c,0,68,107
1,29160,Note_off_c,0,69,0
1,29200,Note_off_c,0,68,0
1,29220,Note_on_c,0,66,107
1,29250,Note_off_c,0,47,0
1,29280,Note_on_c,0,40,107
1,29280,Note_on_c,0,68,107
1,29280,Note_off_c,0,66,0
1,29320,Note_off_c,0,68,0
1,29340,Note_on_c,0,64,107
1,29370,Note_off_c,0,40,0
1,29400,Note_on_c,0,38,107
1,29400,Note_on_c,0,66,107
1,29400,Note_off_c,0,64,0
1,29440,Note_off_c,0,66,0
1,29460,Note_on_c,0,64,107
1,29490,Note_off_c,0,38,0
1,29520,Note_on_c,0,50,107
1,29520,Note_on_c,0,65,107
1,29520,Note_off_c,0,64,0
1,29580,Note_on_c,0,48,107
1,29580,Note_on_c,0,69,107
1,29580,Note_off_c,0,50,0
1,29590,Note_off_c,0,65,0
1,29640,Note_on_c,0,47,107
1,29640,Note_on_c,0,68,107
1,29640,Note_off_c,0,48,0
1,29650,Note_off_c,0,69,0
1,29700,Note_on_c,0,48,107
1,29700,Note_on_c,0,69,107
1,29700,Note_off_c,0,47,0
1,29710,Note_off_c,0,68,0
1,29760,Note_on_c,0,47,107
1,29760,Note_on_c,0,71,107
1,29760,Note_off_c,0,48,0
1,29770,Note_off_c,0,69,0
1,29820,Note_on_c,0,48,107
1,29820,Note_on_c,0,72,107
1,29820,Note_off_c,0,47,0
1,29830,Note_off_c,0,71,0
1,29880,Note_on_c,0,47,107
1,29880,Note_on_c,0,74,107
1,29880,Note_off_c,0,48,0
1,29890,Note_off_c,0,72,0
1,29940,Note_on_c,0,45,107
1,29940,Note_on_c,0,72,107
1,29940,Note_off_c,0,47,0
1,29950,Note_off_c,0,74,0
1,30000,Note_on_c,0,48,107
1,30000,Note_on_c,0,64,107
1,30000,Note_off_c,0,45,0
1,30010,Note_off_c,0,72,0
1,30060,Note_on_c,0,50,107
1,30060,Note_on_c,0,65,107
1,30060,Note_off_c,0,48,0
1,30070,Note_off_c,0,64,0
1,30120,Note_on_c,0,52,107
1,30120,Note_on_c,0,67,107
1,30120,Note_off_c,0,50,0
1,30130,Note_off_c,0,65,0
1,30180,Note_on_c,0,53,107
1,30180,Note_on_c,0,69,107
1,30180,Note_off_c,0,52,0
1,30190,Note_off_c,0,67,0
1,30220,Note_off_c,0,69,0
1,30240,Note_on_c,0,71,107
1,30270,Note_off_c,0,53,0
1,30300,Note_on_c,0,52,107
1,30300,Note_on_c,0,73,107
1,30300,Note_off_c,0,71,0
1,30340,Note_off_c,0,73,0
1,30360,Note_on_c,0,74,107
1,30390,Note_off_c,0,52,0
1,30420,Note_on_c,0,50,107
1,30420,Note_on_c,0,76,107
1,30420,Note_off_c,0,74,0
1,30460,Note_off_c,0,76,0
1,30480,Note_on_c,0,77,107
1,30510,Note_off_c,0,50,0
1,30540,Note_on_c,0,52,107
1,30540,Note_on_c,0,79,107
1,30540,Note_off_c,0,77,0
1,30580,Note_off_c,0,79,0
1,30600,Note_on_c,0,77,107
1,30630,Note_off_c,0,52,0
1,30660,Note_on_c,0,50,107
1,30660,Note_on_c,0,76,107
1,30660,Note_off_c,0,77,0
1,30700,Note_off_c,0,76,0
1,30720,Note_on_c,0,77,107
1,30750,Note_off_c,0,50,0
1,30780,Note_on_c,0,49,107
1,30780,Note_on_c,0,79,107
1,30780,Note_off_c,0,77,0
1,30820,Note_off_c,0,79,0
1,30840,Note_on_c,0,76,107
1,30870,Note_off_c,0,49,0
1,30900,Note_on_c,0,50,107
1,30900,Note_on_c,0,77,107
1,30900,Note_off_c,0,76,0
1,30940,Note_off_c,0,77,0
1,30960,Note_on_c,0,74,107
1,30990,Note_off_c,0,50,0
1,31020,Note_on_c,0,55,107
1,31020,Note_on_c,0,72,107
1,31020,Note_off_c,0,74,0
1,31060,Note_off_c,0,72,0
1,31080,Note_on_c,0,70,107
1,31110,Note_off_c,0,55,0
1,31140,Note_on_c,0,46,107
1,31140,Note_on_c,0,72,107
1,31140,Note_off_c,0,70,0
1,31180,Note_off_c,0,72,0
1,31200,Note_on_c,0,74,107
1,31230,Note_off_c,0,46,0
1,31260,Note_on_c,0,48,107
1,31260,Note_on_c,0,76,107
1,31260,Note_off_c,0,74,0
1,31300,Note_off_c,0,76,0
1,31320,Note_on_c,0,72,107
1,31350,Note_off_c,0,48,0
1,31380,Note_on_c,0,53,107
1,31380,Note_on_c,0,70,107
1,31380,Note_off_c,0,72,0
1,31420,Note_off_c,0,70,0
1,31440,Note_on_c,0,69,107
1,31470,Note_off_c,0,53,0
1,31500,Note_on_c,0,45,107
1,31500,Note_on_c,0,70,107
1,31500,Note_off_c,0,69,0
1,31540,Note_off_c,0,70,0
1,31560,Note_on_c,0,72,107
1,31590,Note_off_c,0,45,0
1,31620,Note_on_c,0,46,107
1,31620,Note_on_c,0,74,107
1,31620,Note_off_c,0,72,0
1,31660,Note_off_c,0,74,0
1,31680,Note_on_c,0,70,107
1,31710,Note_off_c,0,46,0
1,31740,Note_on_c,0,52,107
1,31740,Note_on_c,0,69,107
1,31740,Note_off_c,0,70,0
1,31780,Note_off_c,0,69,0
1,31800,Note_on_c,0,67,107
1,31830,Note_off_c,0,52,0
1,31860,Note_on_c,0,43,107
1,31860,Note_on_c,0,69,107
1,31860,Note_off_c,0,67,0
1,31900,Note_off_c,0,69,0
1,31920,Note_on_c,0,70,107
1,31950,Note_off_c,0,43,0
1,31980,Note_on_c,0,45,107
1,31980,Note_on_c,0,72,107
1,31980,Note_off_c,0,70,0
1,32020,Note_off_c,0,72,0
1,32040,Note_on_c,0,69,107
1,32070,Note_off_c,0,45,0
1,32100,Note_on_c,0,48,107
1,32100,Note_on_c,0,76,107
1,32100,Note_off_c,0,69,0
1,32140,Note_off_c,0,76,0
1,32160,Note_on_c,0,74,107
1,32190,Note_off_c,0,48,0
1,32220,Note_on_c,0,52,107
1,32220,Note_on_c,0,72,107
1,32220,Note_off_c,0,74,0
1,32260,Note_off_c,0,72,0
1,32280,Note_on_c,0,71,107
1,32310,Note_off_c,0,52,0
1,32340,Note_on_c,0,50,107
1,32340,Note_on_c,0,72,107
1,32340,Note_off_c,0,71,0
1,32380,Note_off_c,0,72,0
1,32400,Note_on_c,0,71,107
1,32430,Note_off_c,0,50,0
1,32460,Note_on_c,0,48,107
1,32460,Note_on_c,0,76,107
1,32460,Note_off_c,0,71,0
1,32500,Note_off_c,0,76,0
1,32520,Note_on_c,0,72,107
1,32550,Note_off_c,0,48,0
1,32580,Note_on_c,0,60,107
1,32580,Note_on_c,0,78,107
1,32580,Note_off_c,0,72,0
1,32620,Note_off_c,0,78,0
1,32640,Note_on_c,0,76,107
1,32670,Note_off_c,0,60,0
1,32700,Note_on_c,0,54,107
1,32700,Note_on_c,0,81,107
1,32700,Note_off_c,0,76,0
1,32740,Note_off_c,0,81,0
1,32760,Note_on_c,0,79,107
1,32790,Note_off_c,0,54,0
1,32820,Note_on_c,0,64,107
1,32820,Note_on_c,0,78,107
1,32820,Note_off_c,0,79,0
1,32860,Note_off_c,0,78,0
1,32880,Note_on_c,0,79,107
1,32910,Note_off_c,0,64,0
1,32940,Note_on_c,0,63,107
1,32940,Note_on_c,0,81,107
1,32940,Note_off_c,0,79,0
1,32980,Note_off_c,0,81,0
1,33000,Note_on_c,0,78,107
1,33030,Note_off_c,0,63,0
1,33060,Note_on_c,0,64,107
1,33060,Note_on_c,0,79,107
1,33060,Note_off_c,0,78,0
1,33100,Note_off_c,0,79,0
1,33120,Note_on_c,0,71,107
1,33150,Note_off_c,0,64,0
1,33180,Note_on_c,0,52,107
1,33180,Note_on_c,0,73,107
1,33180,Note_off_c,0,71,0
1,33220,Note_off_c,0,73,0
1,33240,Note_on_c,0,75,107
1,33270,Note_off_c,0,52,0
1,33300,Note_on_c,0,50,107
1,33300,Note_on_c,0,76,107
1,33300,Note_off_c,0,75,0
1,33340,Note_off_c,0,76,0
1,33360,Note_on_c,0,77,107
1,33390,Note_off_c,0,50,0
1,33420,Note_on_c,0,49,107
1,33420,Note_on_c,0,79,107
1,33420,Note_off_c,0,77,0
1,33460,Note_off_c,0,79,0
1,33480,Note_on_c,0,76,107
1,33510,Note_off_c,0,49,0
1,33540,Note_on_c,0,50,107
1,33540,Note_on_c,0,77,107
1,33540,Note_off_c,0,76,0
1,33580,Note_off_c,0,77,0
1,33600,Note_on_c,0,74,107
1,33640,Note_off_c,0,74,0
1,33660,Note_on_c,0,76,107
1,33700,Note_off_c,0,76,0
1,33720,Note_on_c,0,78,107
1,33760,Note_off_c,0,78,0
1,33780,Note_on_c,0,79,107
1,33820,Note_off_c,0,79,0
1,33840,Note_on_c,0,81,107
1,33880,Note_off_c,0,81,0
1,33900,Note_on_c,0,82,107
1,33940,Note_off_c,0,50,0
1,33960,Note_on_c,0,52,107
1,33990,Note_off_c,0,82,0
1,34020,Note_on_c,0,54,107
1,34020,Note_on_c,0,81,107
1,34020,Note_off_c,0,52,0
1,34060,Note_off_c,0,54,0
1,34080,Note_on_c,0,55,107
1,34110,Note_off_c,0,81,0
1,34140,Note_on_c,0,57,107
1,34140,Note_on_c,0,79,107
1,34140,Note_off_c,0,55,0
1,34180,Note_off_c,0,57,0
1,34200,Note_on_c,0,58,107
1,34230,Note_off_c,0,79,0
1,34260,Note_on_c,0,60,107
1,34260,Note_on_c,0,81,107
1,34260,Note_off_c,0,58,0
1,34300,Note_off_c,0,60,0
1,34320,Note_on_c,0,58,107
1,34350,Note_off_c,0,81,0
1,34380,Note_on_c,0,57,107
1,34380,Note_on_c,0,79,107
1,34380,Note_off_c,0,58,0
1,34420,Note_off_c,0,57,0
1,34440,Note_on_c,0,58,107
1,34470,Note_off_c,0,79,0
1,34500,Note_on_c,0,60,107
1,34500,Note_on_c,0,78,107
1,34500,Note_off_c,0,58,0
1,34540,Note_off_c,0,60,0
1,34560,Note_on_c,0,57,107
1,34590,Note_off_c,0,78,0
1,34620,Note_on_c,0,59,107
1,34620,Note_on_c,0,79,107
1,34620,Note_off_c,0,57,0
1,34660,Note_off_c,0,59,0
1,34680,Note_on_c,0,62,107
1,34720,Note_off_c,0,62,0
1,34740,Note_on_c,0,61,107
1,34780,Note_off_c,0,61,0
1,34800,Note_on_c,0,62,107
1,34840,Note_off_c,0,62,0
1,34860,Note_on_c,0,84,107
1,34900,Note_off_c,0,79,0
1,34920,Note_on_c,0,69,107
1,34950,Note_off_c,0,84,0
1,34980,Note_on_c,0,62,107
1,34980,Note_on_c,0,71,107
1,34980,Note_off_c,0,69,0
1,35020,Note_off_c,0,71,0
1,35040,Note_on_c,0,72,107
1,35070,Note_off_c,0,62,0
1,35100,Note_on_c,0,60,107
1,35100,Note_on_c,0,74,107
1,35100,Note_off_c,0,72,0
1,35140,Note_off_c,0,74,0
1,35160,Note_on_c,0,76,107
1,35190,Note_off_c,0,60,0
1,35220,Note_on_c,0,62,107
1,35220,Note_on_c,0,77,107
1,35220,Note_off_c,0,76,0
1,35260,Note_off_c,0,77,0
1,35280,Note_on_c,0,76,107
1,35310,Note_off_c,0,62,0
1,35340,Note_on_c,0,60,107
1,35340,Note_on_c,0,74,107
1,35340,Note_off_c,0,76,0
1,35380,Note_off_c,0,74,0
1,35400,Note_on_c,0,76,107
1,35430,Note_off_c,0,60,0
1,35460,Note_on_c,0,59,107
1,35460,Note_on_c,0,77,107
1,35460,Note_off_c,0,76,0
1,35500,Note_off_c,0,77,0
1,35520,Note_on_c,0,74,107
1,35550,Note_off_c,0,59,0
1,35580,Note_on_c,0,60,107
1,35580,Note_on_c,0,76,107
1,35580,Note_off_c,0,74,0
1,35620,Note_off_c,0,76,0
1,35640,Note_on_c,0,72,107
1,35680,Note_off_c,0,72,0
1,35700,Note_on_c,0,74,107
1,35740,Note_off_c,0,74,0
1,35760,Note_on_c,0,76,107
1,35800,Note_off_c,0,76,0
1,35820,Note_on_c,0,69,107
1,35880,Note_on_c,0,64,107
1,35880,Note_on_c,0,71,107
1,35880,Note_off_c,0,60,0
1,35890,Note_off_c,0,69,0
1,35940,Note_on_c,0,62,107
1,35940,Note_on_c,0,68,107
1,35940,Note_off_c,0,64,0
1,35950,Note_off_c,0,71,0
1,35980,Note_off_c,0,62,0
1,36000,Note_on_c,0,64,107
1,36040,Note_off_c,0,64,0
1,36060,Note_on_c,0,62,107
1,36080,Note_off_c,0,68,0
1,36120,Note_on_c,0,64,107
1,36120,Note_on_c,0,76,107
1,36120,Note_off_c,0,62,0
1,36180,Note_on_c,0,65,107
1,36180,Note_on_c,0,69,107
1,36180,Note_off_c,0,64,0
1,36190,Note_off_c,0,76,0
1,36240,Note_on_c,0,62,107
1,36240,Note_on_c,0,74,107
1,36240,Note_off_c,0,65,0
1,36250,Note_off_c,0,69,0
1,36300,Note_on_c,0,64,107
1,36300,Note_on_c,0,68,107
1,36300,Note_off_c,0,62,0
1,36310,Note_off_c,0,74,0
1,36340,Note_off_c,0,68,0
1,36360,Note_on_c,0,74,107
1,36390,Note_off_c,0,64,0
1,36420,Note_on_c,0,52,107
1,36420,Note_on_c,0,71,107
1,36420,Note_off_c,0,74,0
1,36460,Note_off_c,0,71,0
1,36480,Note_on_c,0,68,107
1,36510,Note_off_c,0,52,0
1,36540,Note_on_c,0,56,107
1,36540,Note_on_c,0,74,107
1,36540,Note_off_c,0,68,0
1,36580,Note_off_c,0,74,0
1,36600,Note_on_c,0,71,107
1,36630,Note_off_c,0,56,0
1,36660,Note_on_c,0,59,107
1,36660,Note_on_c,0,68,107
1,36660,Note_off_c,0,71,0
1,36700,Note_off_c,0,68,0
1,36720,Note_on_c,0,71,107
1,36750,Note_off_c,0,59,0
1,36780,Note_on_c,0,56,107
1,36780,Note_on_c,0,64,107
1,36780,Note_off_c,0,71,0
1,36820,Note_off_c,0,64,0
1,36840,Note_on_c,0,74,107
1,36870,Note_off_c,0,56,0
1,36900,Note_on_c,0,52,107
1,36900,Note_on_c,0,72,107
1,36900,Note_off_c,0,74,0
1,36940,Note_off_c,0,72,0
1,36960,Note_on_c,0,71,107
1,36990,Note_off_c,0,52,0
1,37020,Note_on_c,0,57,107
1,37020,Note_on_c,0,72,107
1,37020,Note_off_c,0,71,0
1,37080,Note_on_c,0,62,107
1,37110,Note_off_c,0,72,0
1,37120,Note_off_c,0,62,0
1,37140,Note_on_c,0,60,107
1,37140,Note_on_c,0,76,107
1,37180,Note_off_c,0,60,0
1,37200,Note_on_c,0,59,107
1,37230,Note_off_c,0,76,0
1,37240,Note_off_c,0,59,0
1,37260,Note_on_c,0,60,107
1,37260,Note_on_c,0,69,107
1,37280,End_track
0,0,End_of_file
